<svg xmlns="http://www.w3.org/2000/svg" xmlns:xlink="http://www.w3.org/1999/xlink" xmlns:lucid="lucid" width="969.14" height="701.99"><g transform="translate(-240 -340)" lucid:page-tab-id="0_0"><path d="M660.9 1019.17V494.64h528.24v524.53z" stroke="#000" fill="#ddcecd"/><use xlink:href="#a" transform="matrix(6.123233995736766e-17,-1,1,6.123233995736766e-17,665.8941504824014,1014.16553548007) translate(442.7413580246914 517.7471413475555)"/><path d="M994 670h166v200H994z" fill-opacity="0"/><path d="M1003.88 670h3.95m7.9 0h3.96m7.9 0h3.95m7.9 0h3.95m7.9 0h3.96m7.9 0h3.96m7.9 0h3.96m7.9 0h3.95m7.9 0h3.96m7.9 0h3.95m7.9 0h3.95m7.9 0h3.96m7.9 0h3.96m7.9 0h1.98v1.96m0 7.84v3.93m0 7.84v3.92m0 7.83v3.92m0 7.85v3.92m0 7.84v3.92m0 7.85v3.92m0 7.84v3.9m0 7.86v3.92m0 7.84v3.92m0 7.85v3.9m0 7.85v3.92m0 7.85v3.92m0 7.84v3.92m0 7.85v3.92m0 7.84v3.93m0 7.84v3.93m0 7.84V870h-1.98m-7.9 0h-3.95m-7.9 0h-3.96m-7.9 0h-3.95m-7.9 0h-3.95m-7.9 0h-3.96m-7.9 0h-3.96m-7.9 0h-3.96m-7.9 0h-3.95m-7.9 0h-3.96m-7.9 0h-3.95m-7.9 0h-3.95m-7.9 0h-3.96m-7.9 0h-3.96m-7.9 0H994v-1.96m0-7.84v-3.93m0-7.84v-3.92m0-7.83v-3.92m0-7.85v-3.92m0-7.84v-3.92m0-7.85v-3.92m0-7.84v-3.9m0-7.86v-3.92m0-7.84v-3.92m0-7.85v-3.9m0-7.85v-3.92m0-7.85v-3.92m0-7.84v-3.92m0-7.85v-3.92m0-7.84v-3.93m0-7.84v-3.93m0-7.84V670h1.98" stroke="#000" stroke-width="2" fill="none"/><use xlink:href="#b" transform="matrix(1,0,0,1,999,675) translate(0 14.4)"/><path d="M688 840h282.1v139H688z" fill-opacity="0"/><path d="M697.8 840h3.9m7.85 0h3.92m7.83 0h3.92m7.84 0h3.92m7.83 0h3.93m7.84 0h3.9m7.85 0h3.92m7.83 0H784m7.83 0h3.92m7.83 0h3.92m7.84 0h3.92m7.83 0h3.9m7.85 0h3.9m7.85 0h3.92m7.83 0h3.92m7.84 0h3.93m7.83 0h3.92m7.84 0h3.9m7.85 0h3.92m7.82 0h3.92m7.84 0h3.92m7.83 0h3.92m7.84 0h3.9m7.84 0h1.96v1.93m0 7.72v3.86m0 7.74v3.86m0 7.72v3.86m0 7.72v3.86m0 7.73v3.85m0 7.72v3.86m0 7.72V923m0 7.74v3.86m0 7.72v3.86m0 7.72v3.86m0 7.73v3.85m0 7.72V979h-1.96m-7.83 0h-3.9m-7.85 0h-3.92m-7.83 0h-3.92m-7.84 0h-3.92m-7.83 0h-3.93m-7.84 0h-3.9m-7.85 0h-3.92m-7.83 0h-3.92m-7.83 0h-3.92m-7.83 0h-3.92m-7.84 0h-3.9m-7.85 0h-3.9m-7.84 0h-3.92m-7.84 0h-3.92m-7.83 0h-3.92m-7.84 0h-3.93m-7.83 0h-3.92m-7.84 0h-3.9m-7.85 0h-3.92m-7.82 0h-3.92m-7.84 0h-3.92m-7.83 0h-3.92m-7.84 0h-3.9m-7.84 0H688v-1.93m0-7.72v-3.86m0-7.74v-3.86m0-7.72v-3.86m0-7.72v-3.86m0-7.73v-3.85m0-7.72v-3.86m0-7.72V896m0-7.74v-3.86m0-7.72v-3.86m0-7.72v-3.86m0-7.73v-3.85m0-7.72V840h1.96" stroke="#000" stroke-width="2" fill="none"/><use xlink:href="#c" transform="matrix(1,0,0,1,693,845) translate(0 14.4)"/><path d="M688.82 520h282.1v200h-282.1z" fill-opacity="0"/><path d="M698.62 520h3.92m7.83 0h3.92m7.83 0h3.9m7.85 0h3.92m7.84 0h3.9m7.85 0h3.9m7.84 0h3.92m7.84 0h3.92m7.83 0h3.92m7.84 0h3.92m7.84 0h3.92m7.83 0h3.93m7.84 0h3.92m7.82 0h3.92m7.84 0h3.92m7.83 0h3.92m7.84 0h3.9m7.84 0h3.92m7.83 0h3.9m7.85 0h3.92m7.83 0h3.92m7.84 0h3.9m7.85 0h3.93m7.84 0h1.95v1.96m0 7.84v3.93m0 7.84v3.92m0 7.83v3.92m0 7.85v3.92m0 7.84v3.92m0 7.85v3.92m0 7.84v3.9m0 7.86v3.92m0 7.84v3.92m0 7.85v3.9m0 7.85v3.92m0 7.85v3.92m0 7.84v3.92m0 7.85v3.92m0 7.84v3.93m0 7.84v3.93m0 7.84V720h-1.95m-7.84 0h-3.92m-7.83 0h-3.9m-7.85 0h-3.92m-7.83 0h-3.92m-7.84 0h-3.9m-7.84 0h-3.92m-7.84 0h-3.9m-7.85 0h-3.92m-7.83 0h-3.92m-7.84 0h-3.92m-7.83 0h-3.93m-7.84 0h-3.92m-7.82 0h-3.92m-7.84 0h-3.9m-7.85 0h-3.92m-7.83 0h-3.92m-7.84 0h-3.92m-7.83 0h-3.9m-7.85 0h-3.9m-7.85 0h-3.92m-7.84 0h-3.9m-7.85 0h-3.93m-7.83 0h-3.92m-7.84 0h-1.96v-1.96m0-7.84v-3.93m0-7.84v-3.92m0-7.83v-3.92m0-7.85v-3.92m0-7.84v-3.92m0-7.85v-3.92m0-7.84v-3.9m0-7.86v-3.92m0-7.84v-3.92m0-7.85v-3.9m0-7.85v-3.92m0-7.85v-3.92m0-7.84v-3.92m0-7.85v-3.92m0-7.84v-3.93m0-7.84v-3.93m0-7.84V520h1.96" stroke="#000" stroke-width="2" fill="none"/><use xlink:href="#d" transform="matrix(1,0,0,1,693.8232442302808,525) translate(0 14.4)"/><path d="M688 740h282.1v80H688z" fill-opacity="0"/><path d="M697.8 740h3.9m7.85 0h3.92m7.83 0h3.92m7.84 0h3.92m7.83 0h3.93m7.84 0h3.9m7.85 0h3.92m7.83 0H784m7.83 0h3.92m7.83 0h3.92m7.84 0h3.92m7.83 0h3.9m7.85 0h3.9m7.85 0h3.92m7.83 0h3.92m7.84 0h3.93m7.83 0h3.92m7.84 0h3.9m7.85 0h3.92m7.82 0h3.92m7.84 0h3.92m7.83 0h3.92m7.84 0h3.9m7.84 0h1.96v1.9m0 7.62v3.8m0 7.63v3.8m0 7.63v3.8m0 7.63v3.82m0 7.62v3.8m0 7.63v3.8m0 7.63v1.9h-1.96m-7.83 0h-3.9m-7.85 0h-3.92m-7.83 0h-3.92m-7.84 0h-3.92m-7.83 0h-3.93m-7.84 0h-3.9m-7.85 0h-3.92m-7.83 0h-3.92m-7.83 0h-3.92m-7.83 0h-3.92m-7.84 0h-3.9m-7.85 0h-3.9m-7.84 0h-3.92m-7.84 0h-3.92m-7.83 0h-3.92m-7.84 0h-3.93m-7.83 0h-3.92m-7.84 0h-3.9m-7.85 0h-3.92m-7.82 0h-3.92m-7.84 0h-3.92m-7.83 0h-3.92m-7.84 0h-3.9m-7.84 0H688v-1.9m0-7.62v-3.8m0-7.63v-3.8m0-7.63v-3.8m0-7.63v-3.82m0-7.62v-3.8m0-7.63v-3.8m0-7.63V740h1.96" stroke="#000" stroke-width="2" fill="none"/><use xlink:href="#e" transform="matrix(1,0,0,1,693,745) translate(0 14.4)"/><use xlink:href="#f" transform="matrix(1,0,0,1,693,745) translate(91.40000000000002 14.4)"/><path d="M781.95 437c-12.12 0-21.95-9.85-21.95-22 0-9.72 5.94-17.92 15.16-20.92-.53-28.58 36.05-34.08 50.68-23.08 7.3-16.5 43.88-11 43.88 5.5 21.95-5.5 43.9 16.5 29.26 44 14.63 22 0 49.5-29.25 38.5-7.32 14.3-36.58 14.3-43.9 0-14.63 11-43.88 5.5-43.88-22z" stroke="#000" stroke-width="4" fill="#fff"/><use xlink:href="#g" transform="matrix(1,0,0,1,760,360) translate(45.05499999999999 49.0875)"/><use xlink:href="#h" transform="matrix(1,0,0,1,760,360) translate(34.60499999999999 70.6875)"/><path d="M600 714.4c11.05 0 20 11.9 20 26.6 0 14.7-8.95 26.6-20 26.6H440c-11.05 0-20-11.9-20-26.6 0-14.7 8.95-26.6 20-26.6z" stroke="#000" stroke-width="2" fill="#fff"/><path d="M600 767.6c-11.05 0-20-11.9-20-26.6 0-14.7 8.95-26.6 20-26.6" stroke="#000" stroke-width="2" fill="none"/><use xlink:href="#i" transform="matrix(1,0,0,1,425.00000000000017,719.3999999999986) translate(54.19999999999999 25.4)"/><use xlink:href="#j" transform="matrix(1,0,0,1,425.00000000000017,719.3999999999986) translate(79.19999999999999 25.4)"/><path d="M700 607h260v42H700z" stroke="#000" fill="#28afb0"/><use xlink:href="#k" transform="matrix(1,0,0,1,704.9999999999997,612) translate(81.725 20.4)"/><path d="M700 866h120v42H700z" stroke="#000" fill="#28afb0"/><use xlink:href="#l" transform="matrix(1,0,0,1,705,871) translate(11.049999999999997 20.4)"/><path d="M840 667h120v42H840z" stroke="#000" fill="#28afb0"/><use xlink:href="#m" transform="matrix(1,0,0,1,844.9999999999932,672) translate(36.05 20.4)"/><path d="M840 766h120v42H840z" stroke="#000" fill="#28afb0"/><use xlink:href="#n" transform="matrix(1,0,0,1,845,771) translate(32.575 20.4)"/><path d="M700 667h120v42H700z" stroke="#000" fill="#28afb0"/><use xlink:href="#o" transform="matrix(1,0,0,1,705,672) translate(29.575 20.4)"/><path d="M699.87 766h120v42h-120z" stroke="#000" fill="#28afb0"/><use xlink:href="#p" transform="matrix(1,0,0,1,704.8749586673355,771) translate(31.575 20.4)"/><path d="M700 547h260v42H700z" stroke="#000" fill="#8b2635"/><use xlink:href="#q" transform="matrix(1,0,0,1,705,552) translate(80.4 20.4)"/><path d="M1020 835.47V717h119.87v118.47z" fill="#eee5ee"/><path d="M1020 825.6v-9.88m0-4.93v-9.9m0-4.92v-9.87m0-4.93v-9.87m0-4.94v-9.87m0-4.95v-9.87m0-4.94v-9.87m0-4.93V717h5m5 0h9.98m5 0h9.98m5 0h10m4.98 0h10m5 0h9.98m5 0h9.98m5 0h10m4.98 0h5v4.94m0 4.93v9.87m0 4.94v9.87m0 4.94v9.86m0 4.94v9.87m0 4.94V796m0 4.93v9.9m0 4.92v9.87m0 4.93v4.94h-5m-5 0h-9.98m-5 0h-10m-4.98 0h-10m-5 0h-9.98m-5 0h-9.98m-5 0h-10m-4.98 0h-10m-5 0H1020v-4.94" stroke="#000" fill="none"/><use xlink:href="#r" transform="matrix(6.123233995736766e-17,-1,1,6.123233995736766e-17,1025.0000000000002,830.466682911258) translate(15.543827160493876 108.45827555555555)"/><path d="M260 1022V901h120v121z" stroke="#000" fill="#ddcecd"/><use xlink:href="#s" transform="matrix(6.123233995736766e-17,-1,1,6.123233995736766e-17,265,1016.9928409561373) translate(41.235185185185216 109.28102755555554)"/><path d="M260 861.5v-121h120v121z" stroke="#000" fill="#ddcecd"/><use xlink:href="#t" transform="matrix(6.123233995736766e-17,-1,1,6.123233995736766e-17,265.0000000000001,856.4928409561376) translate(41.235185185185216 109.28102755555554)"/><path d="M260 701V580h120v121z" stroke="#000" fill="#ddcecd"/><use xlink:href="#u" transform="matrix(6.123233995736766e-17,-1,1,6.123233995736766e-17,265.0000000000001,695.9928409561383) translate(41.235185185185216 109.28102755555554)"/><path d="M419.12 743.74" stroke="#000" stroke-width="2" fill="none"/><path/><path/><path d="M698.5 615.73H520v96.67" stroke="#834187" stroke-width="2" fill="none"/><path d="M699.5 616.73h-1.03v-2h1.03zM521 713.4h-2v-1.03h2z" fill="#834187"/><path d="M600 700" stroke="#000" stroke-width="2" fill="none"/><path d="M320 670h60v31h-60z" stroke="#000" fill="#19647e"/><use xlink:href="#v" transform="matrix(1,0,0,1,325.00000000000216,674.9911888690945) translate(2.549999999999997 15.775)"/><path d="M320 831h60v31h-60z" stroke="#000" fill="#19647e"/><use xlink:href="#v" transform="matrix(1,0,0,1,325.00000000000216,835.9911888690938) translate(2.549999999999997 15.775)"/><path d="M320 991h60v31h-60z" stroke="#000" fill="#19647e"/><use xlink:href="#v" transform="matrix(1,0,0,1,325.0000000000021,995.9911888690938) translate(2.549999999999997 15.775)"/><path d="M287.44 624.13c.05 1.5.25 3.03.6 4.54l8.6-2.84c-.27-1.58-.27-3.18-.04-4.72l-9.16 3.03zM333.54 608.94l-9.15 3c1.16 1.1 2.16 2.36 2.97 3.77l8.6-2.82c-.7-1.4-1.5-2.72-2.43-3.94zM320.48 620.85c.74 2.1 1 4.26.84 6.33l8.98-2.96c-.15-2.05-.58-4.12-1.3-6.16-.32-.88-.68-1.7-1.08-2.53l-8.6 2.83c.46.8.85 1.62 1.16 2.5zM289.28 631.14c-.32-.88-.54-1.77-.68-2.65l-8.6 2.82c.2.87.46 1.75.77 2.62.72 2.04 1.7 3.92 2.9 5.65l8.97-2.97c-1.45-1.55-2.62-3.4-3.36-5.5z" stroke="#000" stroke-opacity="0" fill="#ba141a"/><path d="M325.74 625.67c-.47 6.15-4.67 11.7-11.07 13.82-6.44 2.12-13.3.2-17.6-4.37l-8.97 2.97c6.26 9.03 18.26 13.26 29.47 9.56 11.2-3.68 17.98-14.1 17.18-24.94l-9 2.95zM293 622.27c.82-5.7 4.88-10.77 10.97-12.77 6.04-2 12.5-.4 16.78 3.62l9.17-3.03c-6.4-8.48-18.02-12.35-28.86-8.76-10.88 3.56-17.56 13.47-17.24 23.94l9.17-3z" stroke="#000" stroke-opacity="0" fill="#ba141a"/><path d="M296.44 623.02c.02-.64.06-1.28.16-1.9l-9.16 3c.02.6.08 1.2.15 1.82l8.84-2.92zM334.58 610.46c-.34-.52-.68-1.03-1.04-1.52l-9.16 3.02c.48.44.92.9 1.34 1.4l8.86-2.9zM334.76 625.5c.04-.93.05-1.85-.03-2.78l-8.97 2.96c-.1 1-.27 2-.55 2.97l9.56-3.16zM299.43 637.17c-.85-.6-1.65-1.28-2.36-2.04l-8.97 2.95c.54.8 1.15 1.54 1.8 2.25l9.53-3.16z" stroke="#000" stroke-opacity="0" fill="#7c181c"/><path d="M284.5 624.2l1.96-8.92 7.67-9.06 10-4.96 9.24.04 8 2.7 7.22 5.6 1.57 1.55 3.1-1.12 1.74 2.28-7.4 2.7.07 1.76 1.9 6.88.22 1.1 4.4-1.06-1.3 7.48-4.53 8.03-10.6 7.7-9.45.8-6.42-.76-9.67-5.8-2.94-2.83-.83-.83-4.56 1.44-3.25-7.05 8.15-2.7-.65-5.75z" stroke="#000" stroke-opacity="0" stroke-width="0" fill-opacity="0"/><path d="M287.44 785.13c.05 1.5.25 3.03.6 4.54l8.6-2.84c-.27-1.58-.27-3.18-.04-4.72l-9.16 3.03zM333.54 769.94l-9.15 3c1.16 1.1 2.16 2.36 2.97 3.77l8.6-2.82c-.7-1.4-1.5-2.72-2.43-3.94zM320.48 781.85c.74 2.1 1 4.26.84 6.33l8.98-2.96c-.15-2.05-.58-4.12-1.3-6.16-.32-.88-.68-1.7-1.08-2.53l-8.6 2.83c.46.8.85 1.62 1.16 2.5zM289.28 792.14c-.32-.88-.54-1.77-.68-2.65l-8.6 2.82c.2.87.46 1.75.77 2.62.72 2.04 1.7 3.92 2.9 5.65l8.97-2.97c-1.45-1.55-2.62-3.4-3.36-5.5z" stroke="#000" stroke-opacity="0" fill="#ba141a"/><path d="M325.74 786.67c-.47 6.15-4.67 11.7-11.07 13.82-6.44 2.12-13.3.2-17.6-4.37l-8.97 2.97c6.26 9.03 18.26 13.26 29.47 9.56 11.2-3.68 17.98-14.1 17.18-24.94l-9 2.95zM293 783.27c.82-5.7 4.88-10.77 10.97-12.77 6.04-2 12.5-.4 16.78 3.62l9.17-3.03c-6.4-8.48-18.02-12.35-28.86-8.76-10.88 3.56-17.56 13.47-17.24 23.94l9.17-3z" stroke="#000" stroke-opacity="0" fill="#ba141a"/><path d="M296.44 784.02c.02-.64.06-1.28.16-1.9l-9.16 3c.02.6.08 1.2.15 1.82l8.84-2.92zM334.58 771.46c-.34-.52-.68-1.03-1.04-1.52l-9.16 3.02c.48.44.92.9 1.34 1.4l8.86-2.9zM334.76 786.5c.04-.93.05-1.85-.03-2.78l-8.97 2.96c-.1 1-.27 2-.55 2.97l9.56-3.16zM299.43 798.17c-.85-.6-1.65-1.28-2.36-2.04l-8.97 2.95c.54.8 1.15 1.54 1.8 2.25l9.53-3.16z" stroke="#000" stroke-opacity="0" fill="#7c181c"/><path d="M284.5 785.2l1.96-8.92 7.67-9.06 10-4.96 9.24.04 8 2.7 7.22 5.6 1.57 1.55 3.1-1.12 1.74 2.28-7.4 2.7.07 1.76 1.9 6.88.22 1.1 4.4-1.06-1.3 7.48-4.53 8.03-10.6 7.7-9.45.8-6.42-.76-9.67-5.8-2.94-2.83-.83-.83-4.56 1.44-3.25-7.05 8.15-2.7-.65-5.75z" stroke="#000" stroke-opacity="0" stroke-width="0" fill-opacity="0"/><path d="M287.44 945.13c.05 1.5.25 3.03.6 4.54l8.6-2.84c-.27-1.58-.27-3.18-.04-4.72l-9.16 3.03zM333.54 929.94l-9.15 3c1.16 1.1 2.16 2.36 2.97 3.77l8.6-2.82c-.7-1.4-1.5-2.72-2.43-3.94zM320.48 941.85c.74 2.1 1 4.26.84 6.33l8.98-2.96c-.15-2.05-.58-4.12-1.3-6.16-.32-.88-.68-1.7-1.08-2.53l-8.6 2.83c.46.8.85 1.62 1.16 2.5zM289.28 952.14c-.32-.88-.54-1.77-.68-2.65l-8.6 2.82c.2.87.46 1.75.77 2.62.72 2.04 1.7 3.92 2.9 5.65l8.97-2.97c-1.45-1.55-2.62-3.4-3.36-5.5z" stroke="#000" stroke-opacity="0" fill="#ba141a"/><path d="M325.74 946.67c-.47 6.15-4.67 11.7-11.07 13.82-6.44 2.12-13.3.2-17.6-4.37l-8.97 2.97c6.26 9.03 18.26 13.26 29.47 9.56 11.2-3.68 17.98-14.1 17.18-24.94l-9 2.95zM293 943.27c.82-5.7 4.88-10.77 10.97-12.77 6.04-2 12.5-.4 16.78 3.62l9.17-3.03c-6.4-8.48-18.02-12.35-28.86-8.76-10.88 3.56-17.56 13.47-17.24 23.94l9.17-3z" stroke="#000" stroke-opacity="0" fill="#ba141a"/><path d="M296.44 944.02c.02-.64.06-1.28.16-1.9l-9.16 3c.02.6.08 1.2.15 1.82l8.84-2.92zM334.58 931.46c-.34-.52-.68-1.03-1.04-1.52l-9.16 3.02c.48.44.92.9 1.34 1.4l8.86-2.9zM334.76 946.5c.04-.93.05-1.85-.03-2.78l-8.97 2.96c-.1 1-.27 2-.55 2.97l9.56-3.16zM299.43 958.17c-.85-.6-1.65-1.28-2.36-2.04l-8.97 2.95c.54.8 1.15 1.54 1.8 2.25l9.53-3.16z" stroke="#000" stroke-opacity="0" fill="#7c181c"/><path d="M284.5 945.2l1.96-8.92 7.67-9.06 10-4.96 9.24.04 8 2.7 7.22 5.6 1.57 1.55 3.1-1.12 1.74 2.28-7.4 2.7.07 1.76 1.9 6.88.22 1.1 4.4-1.06-1.3 7.48-4.53 8.03-10.6 7.7-9.45.8-6.42-.76-9.67-5.8-2.94-2.83-.83-.83-4.56 1.44-3.25-7.05 8.15-2.7-.65-5.75z" stroke="#000" stroke-opacity="0" stroke-width="0" fill-opacity="0"/><path d="M1047.44 760.13c.05 1.5.25 3.03.6 4.54l8.6-2.84c-.27-1.58-.27-3.18-.04-4.72l-9.16 3.03zM1093.54 744.94l-9.15 3c1.16 1.1 2.16 2.36 2.97 3.77l8.6-2.82c-.7-1.4-1.5-2.72-2.43-3.94zM1080.48 756.85c.74 2.1 1 4.26.84 6.33l8.98-2.96c-.15-2.05-.58-4.12-1.3-6.16-.32-.88-.68-1.7-1.08-2.53l-8.6 2.83c.46.8.85 1.62 1.16 2.5zM1049.28 767.14c-.32-.88-.54-1.77-.68-2.65l-8.6 2.82c.2.87.46 1.75.77 2.62.72 2.04 1.7 3.92 2.9 5.65l8.97-2.97c-1.45-1.55-2.62-3.4-3.36-5.5z" stroke="#000" stroke-opacity="0" fill="#ba141a"/><path d="M1085.74 761.67c-.47 6.15-4.67 11.7-11.07 13.82-6.44 2.12-13.3.2-17.6-4.37l-8.97 2.97c6.26 9.03 18.26 13.26 29.47 9.56 11.2-3.68 17.98-14.1 17.18-24.94l-9 2.95zM1053 758.27c.82-5.7 4.88-10.77 10.97-12.77 6.04-2 12.5-.4 16.78 3.62l9.17-3.03c-6.4-8.48-18.02-12.35-28.86-8.76-10.88 3.56-17.56 13.47-17.24 23.94l9.17-3z" stroke="#000" stroke-opacity="0" fill="#ba141a"/><path d="M1056.44 759.02c.02-.64.06-1.28.16-1.9l-9.16 3c.02.6.08 1.2.15 1.82l8.84-2.92zM1094.58 746.46c-.34-.52-.68-1.03-1.04-1.52l-9.16 3.02c.48.44.92.9 1.34 1.4l8.86-2.9zM1094.76 761.5c.04-.93.05-1.85-.03-2.78l-8.97 2.96c-.1 1-.27 2-.55 2.97l9.56-3.16zM1059.43 773.17c-.85-.6-1.65-1.28-2.36-2.04l-8.97 2.95c.54.8 1.15 1.54 1.8 2.25l9.53-3.16z" stroke="#000" stroke-opacity="0" fill="#7c181c"/><path d="M1044.5 760.2l1.96-8.92 7.67-9.06 10-4.96 9.24.04 8 2.7 7.22 5.6 1.57 1.55 3.1-1.12 1.74 2.28-7.4 2.7.07 1.76 1.9 6.88.22 1.1 4.4-1.06-1.3 7.48-4.53 8.03-10.6 7.7-9.45.8-6.42-.76-9.67-5.8-2.94-2.83-.83-.83-4.56 1.44-3.25-7.05 8.15-2.7-.65-5.75z" stroke="#000" stroke-opacity="0" stroke-width="0" fill-opacity="0"/><path d="M840 866h120v42H840z" stroke="#000" fill="#28afb0"/><use xlink:href="#w" transform="matrix(1,0,0,1,845,871) translate(7.599999999999994 20.4)"/><path d="M470 741c0 11.05-8.95 20-20 20s-20-8.95-20-20 8.95-20 20-20 20 8.95 20 20zm-34.14-14.14l28.28 28.28m-28.28 0l28.28-28.28" stroke="#000" stroke-width="2" fill="#28afb0"/><path d="M660.9 988.16h60v31h-60z" stroke="#000" fill="#19647e"/><use xlink:href="#v" transform="matrix(1,0,0,1,665.8941504824014,993.1638833930256) translate(2.549999999999997 15.775)"/><path d="M831.52 468.57l-.12 8.55m-.12 8.55l-.23 17.1m-.12 8.54l-.24 17.1m-.13 8.55l-.1 8.55" stroke="#19967d" stroke-width="2" fill="none"/><path d="M832.38 468.1l.14.07v.44h-2l.02-1.64zM831.46 545.5l-.02 1h-2l.02-1.04z" fill="#19967d"/><path d="M381.5 640.5h97.85v71.9" stroke="#834187" stroke-width="2" fill="none"/><path d="M381.53 641.5h-1.03v-2h1.03zM480.35 713.4h-2v-1.03h2z" fill="#834187"/><path d="M381.5 685.5h77.72v26.9" stroke="#834187" stroke-width="2" fill="none"/><path d="M381.53 686.5h-1.03v-2h1.03zM460.22 713.4h-2v-1.03h2z" fill="#834187"/><path d="M381.5 801h76.95v-31.4" stroke="#834187" stroke-width="2" fill="none"/><path d="M381.53 802h-1.03v-2h1.03zM459.45 769.63h-2v-1.03h2z" fill="#834187"/><path d="M381.5 846.5h99.4v-76.9" stroke="#834187" stroke-width="2" fill="none"/><path d="M381.53 847.5h-1.03v-2h1.03zM481.9 769.63h-2v-1.03h2z" fill="#834187"/><path d="M381.5 961.5h120.3V769.6" stroke="#834187" stroke-width="2" fill="none"/><path d="M381.53 962.5h-1.03v-2h1.03zM502.8 769.63h-2v-1.03h2z" fill="#834187"/><path d="M381.5 1006.5H520V769.6" stroke="#834187" stroke-width="2" fill="none"/><path d="M381.53 1007.5h-1.03v-2h1.03zM521 769.63h-2v-1.03h2z" fill="#834187"/><path d="M659.4 1003.66H580.1V769.6" stroke="#834187" stroke-width="2" fill="none"/><path d="M660.4 1004.66h-1.03v-2h1.02zM581.12 769.63h-2v-1.03h2z" fill="#834187"/><path d="M840 926h120v42H840z" stroke="#000" fill="#28afb0"/><use xlink:href="#x" transform="matrix(1,0,0,1,845.0000000000018,930.9928409561388) translate(37.05 20.4)"/><path d="M700 925.5h120v42H700z" stroke="#000" fill="#28afb0"/><use xlink:href="#y" transform="matrix(1,0,0,1,705,930.4920149126164) translate(15.074999999999996 20.4)"/><path d="M1141 780h29V628H961.5M1141.03 780H1140" stroke="#834187" stroke-width="2" fill="none"/><path d="M961.53 629h-1.03v-2h1.03z" fill="#834187"/><defs><path d="M115-194c53 0 69 39 70 98 0 66-23 100-70 100C84 3 66-7 56-30L54 0H23l1-261h32v101c10-23 28-34 59-34zm-8 174c40 0 45-34 45-75 0-40-5-75-45-74-42 0-51 32-51 76 0 43 10 73 51 73" id="z"/><path d="M141-36C126-15 110 5 73 4 37 3 15-17 15-53c-1-64 63-63 125-63 3-35-9-54-41-54-24 1-41 7-42 31l-33-3c5-37 33-52 76-52 45 0 72 20 72 64v82c-1 20 7 32 28 27v20c-31 9-61-2-59-35zM48-53c0 20 12 33 32 33 41-3 63-29 60-74-43 2-92-5-92 41" id="A"/><path d="M135-143c-3-34-86-38-87 0 15 53 115 12 119 90S17 21 10-45l28-5c4 36 97 45 98 0-10-56-113-15-118-90-4-57 82-63 122-42 12 7 21 19 24 35" id="B"/><path d="M59-47c-2 24 18 29 38 22v24C64 9 27 4 27-40v-127H5v-23h24l9-43h21v43h35v23H59v120" id="C"/><path d="M24-231v-30h32v30H24zM24 0v-190h32V0H24" id="D"/><path d="M100-194c62-1 85 37 85 99 1 63-27 99-86 99S16-35 15-95c0-66 28-99 85-99zM99-20c44 1 53-31 53-75 0-43-8-75-51-75s-53 32-53 75 10 74 51 75" id="E"/><path d="M117-194c89-4 53 116 60 194h-32v-121c0-31-8-49-39-48C34-167 62-67 57 0H25l-1-190h30c1 10-1 24 2 32 11-22 29-35 61-36" id="F"/><g id="a"><use transform="matrix(0.06234567901234565,0,0,0.06234567901234565,0,0)" xlink:href="#z"/><use transform="matrix(0.06234567901234565,0,0,0.06234567901234565,12.46913580246913,0)" xlink:href="#A"/><use transform="matrix(0.06234567901234565,0,0,0.06234567901234565,24.93827160493826,0)" xlink:href="#B"/><use transform="matrix(0.06234567901234565,0,0,0.06234567901234565,36.16049382716048,0)" xlink:href="#C"/><use transform="matrix(0.06234567901234565,0,0,0.06234567901234565,42.39506172839504,0)" xlink:href="#D"/><use transform="matrix(0.06234567901234565,0,0,0.06234567901234565,47.32037037037035,0)" xlink:href="#E"/><use transform="matrix(0.06234567901234565,0,0,0.06234567901234565,59.78950617283948,0)" xlink:href="#F"/></g><path d="M197 0v-115H63V0H30v-248h33v105h134v-105h34V0h-34" id="G"/><path d="M137-103V0h-34v-103L8-248h37l75 118 75-118h37" id="H"/><path d="M30-248c87 1 191-15 191 75 0 78-77 80-158 76V0H30v-248zm33 125c57 0 124 11 124-50 0-59-68-47-124-48v98" id="I"/><path d="M30 0v-248h187v28H63v79h144v27H63v87h162V0H30" id="J"/><path d="M233-177c-1 41-23 64-60 70L243 0h-38l-65-103H63V0H30v-248c88 3 205-21 203 71zM63-129c60-2 137 13 137-47 0-61-80-42-137-45v92" id="K"/><path d="M137 0h-34L2-248h35l83 218 83-218h36" id="L"/><path d="M33 0v-248h34V0H33" id="M"/><path d="M185-189c-5-48-123-54-124 2 14 75 158 14 163 119 3 78-121 87-175 55-17-10-28-26-33-46l33-7c5 56 141 63 141-1 0-78-155-14-162-118-5-82 145-84 179-34 5 7 8 16 11 25" id="N"/><path d="M140-251c81 0 123 46 123 126C263-46 219 4 140 4 59 4 17-45 17-125s42-126 123-126zm0 227c63 0 89-41 89-101s-29-99-89-99c-61 0-89 39-89 99S79-25 140-24" id="O"/><g id="b"><use transform="matrix(0.05,0,0,0.05,0,0)" xlink:href="#G"/><use transform="matrix(0.05,0,0,0.05,12.950000000000001,0)" xlink:href="#H"/><use transform="matrix(0.05,0,0,0.05,24.950000000000003,0)" xlink:href="#I"/><use transform="matrix(0.05,0,0,0.05,36.95,0)" xlink:href="#J"/><use transform="matrix(0.05,0,0,0.05,48.95,0)" xlink:href="#K"/><use transform="matrix(0.05,0,0,0.05,61.550000000000004,0)" xlink:href="#L"/><use transform="matrix(0.05,0,0,0.05,73.55000000000001,0)" xlink:href="#M"/><use transform="matrix(0.05,0,0,0.05,78.55000000000001,0)" xlink:href="#N"/><use transform="matrix(0.05,0,0,0.05,90.55000000000001,0)" xlink:href="#O"/><use transform="matrix(0.05,0,0,0.05,104.55000000000001,0)" xlink:href="#K"/></g><path d="M190 0L58-211 59 0H30v-248h39L202-35l-2-213h31V0h-41" id="P"/><path d="M63-220v92h138v28H63V0H30v-248h175v28H63" id="Q"/><path d="M205 0l-28-72H64L36 0H1l101-248h38L239 0h-34zm-38-99l-47-123c-12 45-31 82-46 123h93" id="R"/><path d="M127-220V0H93v-220H8v-28h204v28h-85" id="S"/><path d="M232-93c-1 65-40 97-104 97C67 4 28-28 28-90v-158h33c8 89-33 224 67 224 102 0 64-133 71-224h33v155" id="T"/><path d="M212-179c-10-28-35-45-73-45-59 0-87 40-87 99 0 60 29 101 89 101 43 0 62-24 78-52l27 14C228-24 195 4 139 4 59 4 22-46 18-125c-6-104 99-153 187-111 19 9 31 26 39 46" id="U"/><g id="c"><use transform="matrix(0.05,0,0,0.05,0,0)" xlink:href="#M"/><use transform="matrix(0.05,0,0,0.05,5,0)" xlink:href="#P"/><use transform="matrix(0.05,0,0,0.05,17.950000000000003,0)" xlink:href="#Q"/><use transform="matrix(0.05,0,0,0.05,28.900000000000006,0)" xlink:href="#K"/><use transform="matrix(0.05,0,0,0.05,41.85000000000001,0)" xlink:href="#R"/><use transform="matrix(0.05,0,0,0.05,53.85,0)" xlink:href="#N"/><use transform="matrix(0.05,0,0,0.05,65.85000000000001,0)" xlink:href="#S"/><use transform="matrix(0.05,0,0,0.05,76.80000000000001,0)" xlink:href="#K"/><use transform="matrix(0.05,0,0,0.05,89.75000000000001,0)" xlink:href="#T"/><use transform="matrix(0.05,0,0,0.05,102.7,0)" xlink:href="#U"/><use transform="matrix(0.05,0,0,0.05,115.65000000000003,0)" xlink:href="#S"/><use transform="matrix(0.05,0,0,0.05,126.60000000000002,0)" xlink:href="#T"/><use transform="matrix(0.05,0,0,0.05,139.55,0)" xlink:href="#K"/><use transform="matrix(0.05,0,0,0.05,152.5,0)" xlink:href="#J"/></g><g id="d"><use transform="matrix(0.05,0,0,0.05,0,0)" xlink:href="#K"/><use transform="matrix(0.05,0,0,0.05,12.950000000000001,0)" xlink:href="#O"/><use transform="matrix(0.05,0,0,0.05,26.950000000000003,0)" xlink:href="#T"/><use transform="matrix(0.05,0,0,0.05,39.900000000000006,0)" xlink:href="#S"/><use transform="matrix(0.05,0,0,0.05,50.85000000000001,0)" xlink:href="#J"/><use transform="matrix(0.05,0,0,0.05,62.85,0)" xlink:href="#K"/></g><g id="e"><use transform="matrix(0.05,0,0,0.05,0,0)" xlink:href="#U"/><use transform="matrix(0.05,0,0,0.05,12.950000000000001,0)" xlink:href="#O"/><use transform="matrix(0.05,0,0,0.05,26.950000000000003,0)" xlink:href="#P"/><use transform="matrix(0.05,0,0,0.05,39.900000000000006,0)" xlink:href="#S"/><use transform="matrix(0.05,0,0,0.05,50.85000000000001,0)" xlink:href="#J"/><use transform="matrix(0.05,0,0,0.05,62.85,0)" xlink:href="#P"/><use transform="matrix(0.05,0,0,0.05,75.80000000000001,0)" xlink:href="#S"/></g><g id="f"><use transform="matrix(0.05,0,0,0.05,0,0)" xlink:href="#N"/><use transform="matrix(0.05,0,0,0.05,12,0)" xlink:href="#O"/><use transform="matrix(0.05,0,0,0.05,26,0)" xlink:href="#T"/><use transform="matrix(0.05,0,0,0.05,38.95,0)" xlink:href="#K"/><use transform="matrix(0.05,0,0,0.05,51.900000000000006,0)" xlink:href="#U"/><use transform="matrix(0.05,0,0,0.05,64.85000000000001,0)" xlink:href="#J"/><use transform="matrix(0.05,0,0,0.05,76.85000000000001,0)" xlink:href="#N"/></g><path d="M160-131c35 5 61 23 61 61C221 17 115-2 30 0v-248c76 3 177-17 177 60 0 33-19 50-47 57zm-97-11c50-1 110 9 110-42 0-47-63-36-110-37v79zm0 115c55-2 124 14 124-45 0-56-70-42-124-44v89" id="V"/><path d="M30 0v-248h33v221h125V0H30" id="W"/><g id="g"><use transform="matrix(0.05,0,0,0.05,0,0)" xlink:href="#I"/><use transform="matrix(0.05,0,0,0.05,12,0)" xlink:href="#T"/><use transform="matrix(0.05,0,0,0.05,24.950000000000003,0)" xlink:href="#V"/><use transform="matrix(0.05,0,0,0.05,36.95,0)" xlink:href="#W"/><use transform="matrix(0.05,0,0,0.05,46.95,0)" xlink:href="#M"/><use transform="matrix(0.05,0,0,0.05,51.95,0)" xlink:href="#U"/></g><path d="M266 0h-40l-56-210L115 0H75L2-248h35L96-30l15-64 43-154h32l59 218 59-218h35" id="X"/><path d="M194 0L95-120 63-95V0H30v-248h33v124l119-124h40L117-140 236 0h-42" id="Y"/><g id="h"><use transform="matrix(0.05,0,0,0.05,0,0)" xlink:href="#P"/><use transform="matrix(0.05,0,0,0.05,12.950000000000001,0)" xlink:href="#J"/><use transform="matrix(0.05,0,0,0.05,24.950000000000003,0)" xlink:href="#S"/><use transform="matrix(0.05,0,0,0.05,35.900000000000006,0)" xlink:href="#X"/><use transform="matrix(0.05,0,0,0.05,52.85,0)" xlink:href="#O"/><use transform="matrix(0.05,0,0,0.05,66.85000000000001,0)" xlink:href="#K"/><use transform="matrix(0.05,0,0,0.05,79.80000000000001,0)" xlink:href="#Y"/></g><path d="M101-251c82-7 93 87 43 132L82-64C71-53 59-42 53-27h129V0H18c2-99 128-94 128-182 0-28-16-43-45-43s-46 15-49 41l-32-3c6-41 34-60 81-64" id="Z"/><g id="i"><use transform="matrix(0.05,0,0,0.05,0,0)" xlink:href="#W"/><use transform="matrix(0.05,0,0,0.05,10,0)" xlink:href="#Z"/></g><g id="j"><use transform="matrix(0.05,0,0,0.05,0,0)" xlink:href="#N"/><use transform="matrix(0.05,0,0,0.05,12,0)" xlink:href="#X"/><use transform="matrix(0.05,0,0,0.05,28.950000000000003,0)" xlink:href="#M"/><use transform="matrix(0.05,0,0,0.05,33.95,0)" xlink:href="#S"/><use transform="matrix(0.05,0,0,0.05,44.900000000000006,0)" xlink:href="#U"/><use transform="matrix(0.05,0,0,0.05,57.85,0)" xlink:href="#G"/></g><path d="M143 4C61 4 22-44 18-125c-5-107 100-154 193-111 17 8 29 25 37 43l-32 9c-13-25-37-40-76-40-61 0-88 39-88 99 0 61 29 100 91 101 35 0 62-11 79-27v-45h-74v-28h105v86C228-13 192 4 143 4" id="aa"/><g id="k"><use transform="matrix(0.05,0,0,0.05,0,0)" xlink:href="#aa"/><use transform="matrix(0.05,0,0,0.05,14,0)" xlink:href="#R"/><use transform="matrix(0.05,0,0,0.05,24.65,0)" xlink:href="#S"/><use transform="matrix(0.05,0,0,0.05,35.6,0)" xlink:href="#J"/><use transform="matrix(0.05,0,0,0.05,47.6,0)" xlink:href="#X"/><use transform="matrix(0.05,0,0,0.05,63.900000000000006,0)" xlink:href="#R"/><use transform="matrix(0.05,0,0,0.05,74.55000000000001,0)" xlink:href="#H"/></g><path d="M195 0l-74-108L45 0H8l94-129-87-119h37l69 98 67-98h37l-84 118L233 0h-38" id="ab"/><g id="l"><use transform="matrix(0.05,0,0,0.05,0,0)" xlink:href="#G"/><use transform="matrix(0.05,0,0,0.05,12.950000000000001,0)" xlink:href="#R"/><use transform="matrix(0.05,0,0,0.05,24.950000000000003,0)" xlink:href="#I"/><use transform="matrix(0.05,0,0,0.05,36.95,0)" xlink:href="#K"/><use transform="matrix(0.05,0,0,0.05,49.900000000000006,0)" xlink:href="#O"/><use transform="matrix(0.05,0,0,0.05,63.900000000000006,0)" xlink:href="#ab"/><use transform="matrix(0.05,0,0,0.05,75.9,0)" xlink:href="#H"/></g><path d="M30-248c118-7 216 8 213 122C240-48 200 0 122 0H30v-248zM63-27c89 8 146-16 146-99s-60-101-146-95v194" id="ac"/><g id="m"><use transform="matrix(0.05,0,0,0.05,0,0)" xlink:href="#ac"/><use transform="matrix(0.05,0,0,0.05,12.950000000000001,0)" xlink:href="#P"/><use transform="matrix(0.05,0,0,0.05,25.900000000000002,0)" xlink:href="#N"/></g><g id="n"><use transform="matrix(0.05,0,0,0.05,0,0)" xlink:href="#S"/><use transform="matrix(0.05,0,0,0.05,10.950000000000001,0)" xlink:href="#Q"/><use transform="matrix(0.05,0,0,0.05,21.900000000000002,0)" xlink:href="#S"/><use transform="matrix(0.05,0,0,0.05,32.85,0)" xlink:href="#I"/></g><g id="o"><use transform="matrix(0.05,0,0,0.05,0,0)" xlink:href="#ac"/><use transform="matrix(0.05,0,0,0.05,12.950000000000001,0)" xlink:href="#G"/><use transform="matrix(0.05,0,0,0.05,25.900000000000002,0)" xlink:href="#U"/><use transform="matrix(0.05,0,0,0.05,38.85,0)" xlink:href="#I"/></g><g id="p"><use transform="matrix(0.05,0,0,0.05,0,0)" xlink:href="#G"/><use transform="matrix(0.05,0,0,0.05,12.950000000000001,0)" xlink:href="#S"/><use transform="matrix(0.05,0,0,0.05,23.900000000000002,0)" xlink:href="#S"/><use transform="matrix(0.05,0,0,0.05,34.85,0)" xlink:href="#I"/></g><path fill="#fff" d="M63-220v92h138v28H63V0H30v-248h175v28H63" id="ad"/><path fill="#fff" d="M33 0v-248h34V0H33" id="ae"/><path fill="#fff" d="M233-177c-1 41-23 64-60 70L243 0h-38l-65-103H63V0H30v-248c88 3 205-21 203 71zM63-129c60-2 137 13 137-47 0-61-80-42-137-45v92" id="af"/><path fill="#fff" d="M30 0v-248h187v28H63v79h144v27H63v87h162V0H30" id="ag"/><path fill="#fff" d="M266 0h-40l-56-210L115 0H75L2-248h35L96-30l15-64 43-154h32l59 218 59-218h35" id="ah"/><path fill="#fff" d="M205 0l-28-72H64L36 0H1l101-248h38L239 0h-34zm-38-99l-47-123c-12 45-31 82-46 123h93" id="ai"/><path fill="#fff" d="M30 0v-248h33v221h125V0H30" id="aj"/><g id="q"><use transform="matrix(0.05,0,0,0.05,0,0)" xlink:href="#ad"/><use transform="matrix(0.05,0,0,0.05,10.950000000000001,0)" xlink:href="#ae"/><use transform="matrix(0.05,0,0,0.05,15.950000000000001,0)" xlink:href="#af"/><use transform="matrix(0.05,0,0,0.05,28.900000000000002,0)" xlink:href="#ag"/><use transform="matrix(0.05,0,0,0.05,40.900000000000006,0)" xlink:href="#ah"/><use transform="matrix(0.05,0,0,0.05,57.2,0)" xlink:href="#ai"/><use transform="matrix(0.05,0,0,0.05,69.2,0)" xlink:href="#aj"/><use transform="matrix(0.05,0,0,0.05,79.2,0)" xlink:href="#aj"/></g><path d="M114-163C36-179 61-72 57 0H25l-1-190h30c1 12-1 29 2 39 6-27 23-49 58-41v29" id="ak"/><path d="M115-194c55 1 70 41 70 98S169 2 115 4C84 4 66-9 55-30l1 105H24l-1-265h31l2 30c10-21 28-34 59-34zm-8 174c40 0 45-34 45-75s-6-73-45-74c-42 0-51 32-51 76 0 43 10 73 51 73" id="al"/><g id="r"><use transform="matrix(0.06234567901234565,0,0,0.06234567901234565,0,0)" xlink:href="#z"/><use transform="matrix(0.06234567901234565,0,0,0.06234567901234565,12.46913580246913,0)" xlink:href="#E"/><use transform="matrix(0.06234567901234565,0,0,0.06234567901234565,24.93827160493826,0)" xlink:href="#E"/><use transform="matrix(0.06234567901234565,0,0,0.06234567901234565,37.40740740740739,0)" xlink:href="#C"/><use transform="matrix(0.06234567901234565,0,0,0.06234567901234565,43.64197530864195,0)" xlink:href="#B"/><use transform="matrix(0.06234567901234565,0,0,0.06234567901234565,54.864197530864175,0)" xlink:href="#C"/><use transform="matrix(0.06234567901234565,0,0,0.06234567901234565,61.09876543209874,0)" xlink:href="#ak"/><use transform="matrix(0.06234567901234565,0,0,0.06234567901234565,68.51790123456787,0)" xlink:href="#A"/><use transform="matrix(0.06234567901234565,0,0,0.06234567901234565,80.987037037037,0)" xlink:href="#al"/></g><path d="M85-194c31 0 48 13 60 33l-1-100h32l1 261h-30c-2-10 0-23-3-31C134-8 116 4 85 4 32 4 16-35 15-94c0-66 23-100 70-100zm9 24c-40 0-46 34-46 75 0 40 6 74 45 74 42 0 51-32 51-76 0-42-9-74-50-73" id="am"/><path d="M100-194c63 0 86 42 84 106H49c0 40 14 67 53 68 26 1 43-12 49-29l28 8c-11 28-37 45-77 45C44 4 14-33 15-96c1-61 26-98 85-98zm52 81c6-60-76-77-97-28-3 7-6 17-6 28h103" id="an"/><path d="M16-82v-28h88v28H16" id="ao"/><g id="s"><use transform="matrix(0.06234567901234565,0,0,0.06234567901234565,0,0)" xlink:href="#F"/><use transform="matrix(0.06234567901234565,0,0,0.06234567901234565,12.46913580246913,0)" xlink:href="#E"/><use transform="matrix(0.06234567901234565,0,0,0.06234567901234565,24.93827160493826,0)" xlink:href="#am"/><use transform="matrix(0.06234567901234565,0,0,0.06234567901234565,37.40740740740739,0)" xlink:href="#an"/><use transform="matrix(0.06234567901234565,0,0,0.06234567901234565,49.87654320987652,0)" xlink:href="#ao"/><use transform="matrix(0.06234567901234565,0,0,0.06234567901234565,57.29567901234566,0)" xlink:href="#Z"/></g><path d="M27 0v-27h64v-190l-56 39v-29l58-41h29v221h61V0H27" id="ap"/><g id="t"><use transform="matrix(0.06234567901234565,0,0,0.06234567901234565,0,0)" xlink:href="#F"/><use transform="matrix(0.06234567901234565,0,0,0.06234567901234565,12.46913580246913,0)" xlink:href="#E"/><use transform="matrix(0.06234567901234565,0,0,0.06234567901234565,24.93827160493826,0)" xlink:href="#am"/><use transform="matrix(0.06234567901234565,0,0,0.06234567901234565,37.40740740740739,0)" xlink:href="#an"/><use transform="matrix(0.06234567901234565,0,0,0.06234567901234565,49.87654320987652,0)" xlink:href="#ao"/><use transform="matrix(0.06234567901234565,0,0,0.06234567901234565,57.29567901234566,0)" xlink:href="#ap"/></g><path d="M101-251c68 0 85 55 85 127S166 4 100 4C33 4 14-52 14-124c0-73 17-127 87-127zm-1 229c47 0 54-49 54-102s-4-102-53-102c-51 0-55 48-55 102 0 53 5 102 54 102" id="aq"/><g id="u"><use transform="matrix(0.06234567901234565,0,0,0.06234567901234565,0,0)" xlink:href="#F"/><use transform="matrix(0.06234567901234565,0,0,0.06234567901234565,12.46913580246913,0)" xlink:href="#E"/><use transform="matrix(0.06234567901234565,0,0,0.06234567901234565,24.93827160493826,0)" xlink:href="#am"/><use transform="matrix(0.06234567901234565,0,0,0.06234567901234565,37.40740740740739,0)" xlink:href="#an"/><use transform="matrix(0.06234567901234565,0,0,0.06234567901234565,49.87654320987652,0)" xlink:href="#ao"/><use transform="matrix(0.06234567901234565,0,0,0.06234567901234565,57.29567901234566,0)" xlink:href="#aq"/></g><path fill="#fff" d="M210-169c-67 3-38 105-44 169h-31v-121c0-29-5-50-35-48C34-165 62-65 56 0H25l-1-190h30c1 10-1 24 2 32 10-44 99-50 107 0 11-21 27-35 58-36 85-2 47 119 55 194h-31v-121c0-29-5-49-35-48" id="ar"/><path fill="#fff" d="M177-190C167-65 218 103 67 71c-23-6-38-20-44-43l32-5c15 47 100 32 89-28v-30C133-14 115 1 83 1 29 1 15-40 15-95c0-56 16-97 71-98 29-1 48 16 59 35 1-10 0-23 2-32h30zM94-22c36 0 50-32 50-73 0-42-14-75-50-75-39 0-46 34-46 75s6 73 46 73" id="as"/><path fill="#fff" d="M59-47c-2 24 18 29 38 22v24C64 9 27 4 27-40v-127H5v-23h24l9-43h21v43h35v23H59v120" id="at"/><g id="v"><use transform="matrix(0.05,0,0,0.05,0,0)" xlink:href="#ar"/><use transform="matrix(0.05,0,0,0.05,14.950000000000001,0)" xlink:href="#as"/><use transform="matrix(0.05,0,0,0.05,24.950000000000003,0)" xlink:href="#ar"/><use transform="matrix(0.05,0,0,0.05,39.900000000000006,0)" xlink:href="#at"/></g><g id="w"><use transform="matrix(0.05,0,0,0.05,0,0)" xlink:href="#Q"/><use transform="matrix(0.05,0,0,0.05,9.950000000000001,0)" xlink:href="#R"/><use transform="matrix(0.05,0,0,0.05,21.950000000000003,0)" xlink:href="#K"/><use transform="matrix(0.05,0,0,0.05,34.900000000000006,0)" xlink:href="#O"/><use transform="matrix(0.05,0,0,0.05,48.900000000000006,0)" xlink:href="#N"/><use transform="matrix(0.05,0,0,0.05,60.900000000000006,0)" xlink:href="#U"/><use transform="matrix(0.05,0,0,0.05,73.85000000000001,0)" xlink:href="#S"/><use transform="matrix(0.05,0,0,0.05,84.80000000000001,0)" xlink:href="#W"/></g><g id="x"><use transform="matrix(0.05,0,0,0.05,0,0)" xlink:href="#P"/><use transform="matrix(0.05,0,0,0.05,12.950000000000001,0)" xlink:href="#S"/><use transform="matrix(0.05,0,0,0.05,23.900000000000002,0)" xlink:href="#I"/></g><g id="y"><use transform="matrix(0.05,0,0,0.05,0,0)" xlink:href="#U"/><use transform="matrix(0.05,0,0,0.05,12.950000000000001,0)" xlink:href="#O"/><use transform="matrix(0.05,0,0,0.05,26.950000000000003,0)" xlink:href="#U"/><use transform="matrix(0.05,0,0,0.05,39.900000000000006,0)" xlink:href="#Y"/><use transform="matrix(0.05,0,0,0.05,51.900000000000006,0)" xlink:href="#I"/><use transform="matrix(0.05,0,0,0.05,63.900000000000006,0)" xlink:href="#M"/><use transform="matrix(0.05,0,0,0.05,68.9,0)" xlink:href="#S"/></g></defs></g></svg>