<svg xmlns="http://www.w3.org/2000/svg" xmlns:xlink="http://www.w3.org/1999/xlink" xmlns:lucid="lucid" width="700.95" height="971"><g transform="translate(-187.50125788654182 -160)" lucid:page-tab-id="jr-bNainNLQ."><path d="M207.5 1060.13V354.6h192.2v705.53z" stroke="#000" fill="#eee5ee"/><use xlink:href="#a" transform="matrix(6.123233995736766e-17,-1,1,6.123233995736766e-17,212.50125788654185,1055.1302005042346) translate(621.2475308641975 17.95555555555555)"/><path d="M260 540.03V385.35h121.16v154.68z" stroke="#000" fill="#ddcecd"/><use xlink:href="#b" transform="matrix(6.123233995736766e-17,-1,1,6.123233995736766e-17,265.0000000000001,535.0312252597458) translate(72.7413580246914 17.95555555555555)"/><path d="M252.4 267c-12.13 0-21.96-9.85-21.96-22 0-9.72 5.95-17.92 15.17-20.92-.53-28.58 36.05-34.08 50.68-23.08 7.3-16.5 43.9-11 43.9 5.5 21.93-5.5 43.88 16.5 29.25 44 14.63 22 0 49.5-29.26 38.5-7.32 14.3-36.58 14.3-43.9 0-14.62 11-43.88 5.5-43.88-22z" stroke="#7d360a" stroke-width="2" fill="#f96b13"/><use xlink:href="#c" transform="matrix(1,0,0,1,230.44328193069558,190) translate(45.05499999999999 49.0875)"/><use xlink:href="#d" transform="matrix(1,0,0,1,230.44328193069558,190) translate(34.60499999999999 70.6875)"/><path d="M260 1022V901h120v121z" stroke="#000" fill="#ddcecd"/><use xlink:href="#e" transform="matrix(6.123233995736766e-17,-1,1,6.123233995736766e-17,265,1016.9928409561373) translate(41.235185185185216 17.95555555555555)"/><path d="M260 861.5v-121h120v121z" stroke="#000" fill="#ddcecd"/><use xlink:href="#f" transform="matrix(6.123233995736766e-17,-1,1,6.123233995736766e-17,265.0000000000001,856.4928409561376) translate(41.235185185185216 17.95555555555555)"/><path d="M260 701V580h120v121z" stroke="#000" fill="#ddcecd"/><use xlink:href="#g" transform="matrix(6.123233995736766e-17,-1,1,6.123233995736766e-17,265.0000000000001,695.9928409561383) translate(41.235185185185216 17.95555555555555)"/><path d="M320 670h60v31h-60z" stroke="#000" fill="#19647e"/><use xlink:href="#h" transform="matrix(1,0,0,1,325.00000000000216,674.9911888690945) translate(2.549999999999997 15.775)"/><path d="M320 831h60v31h-60z" stroke="#000" fill="#19647e"/><use xlink:href="#h" transform="matrix(1,0,0,1,325.00000000000216,835.9911888690938) translate(2.549999999999997 15.775)"/><path d="M320 991h60v31h-60z" stroke="#000" fill="#19647e"/><use xlink:href="#h" transform="matrix(1,0,0,1,325.0000000000021,995.9911888690938) translate(2.549999999999997 15.775)"/><path d="M321.16 509h60v31h-60z" stroke="#000" fill="#19647e"/><use xlink:href="#h" transform="matrix(1,0,0,1,326.16018841507616,513.9947683910251) translate(2.549999999999997 15.775)"/><path d="M320 901h60v31h-60z" stroke="#000" fill="#19647e"/><use xlink:href="#i" transform="matrix(1,0,0,1,325.00000000000205,905.999999999999) translate(5 15.775)"/><path d="M320 740.5h60v31h-60z" stroke="#000" fill="#19647e"/><use xlink:href="#i" transform="matrix(1,0,0,1,325.00000000000205,745.4999999999994) translate(5 15.775)"/><path d="M320 580h60v31h-60z" stroke="#000" fill="#19647e"/><use xlink:href="#i" transform="matrix(1,0,0,1,325.00000000000205,584.9999999999999) translate(5 15.775)"/><path d="M321.16 447h60v31h-60z" stroke="#000" fill="#19647e"/><use xlink:href="#j" transform="matrix(1,0,0,1,326.16018841507616,451.9914642169364) translate(5 15.775)"/><path d="M320 946h60v31h-60z" stroke="#000" fill="#19647e"/><use xlink:href="#k" transform="matrix(1,0,0,1,325.00000000000205,950.9955944345463) translate(5 15.775)"/><path d="M320 785.75h60v31h-60z" stroke="#000" fill="#19647e"/><use xlink:href="#k" transform="matrix(1,0,0,1,325.00000000000205,790.7455944345465) translate(5 15.775)"/><path d="M320 625h60v31h-60z" stroke="#000" fill="#19647e"/><use xlink:href="#k" transform="matrix(1,0,0,1,325.00000000000205,629.9955944345468) translate(5 15.775)"/><path d="M321.16 478h60v31h-60z" stroke="#000" fill="#19647e"/><use xlink:href="#k" transform="matrix(1,0,0,1,326.16018841507616,482.99311630398074) translate(5 15.775)"/><path d="M523 1097h-6V401.6h6z" fill="#834187"/><path fill="#834187"/><path d="M523 1100h-6v-3.08h6z" fill="#834187"/><use xlink:href="#l" transform="matrix(1,0,0,1,479.525,358.4) translate(0.005000000000002558 14.4)"/><use xlink:href="#m" transform="matrix(1,0,0,1,479.525,358.4) translate(1.5300000000000011 36)"/><use xlink:href="#n" transform="matrix(1,0,0,1,479.525,358.4) translate(26.53 36)"/><path d="M382.66 433.07H519" stroke="#834187" stroke-width="2" fill="none"/><path d="M382.7 434.07h-1.04v-2h1.03z" fill="#834187"/><path d="M518.97 433.07H520M381.5 595.5H519" stroke="#834187" stroke-width="2" fill="none"/><path d="M381.53 596.5h-1.03v-2h1.03z" fill="#834187"/><path d="M518.97 595.5H520M381.5 756H519" stroke="#834187" stroke-width="2" fill="none"/><path d="M381.53 757h-1.03v-2h1.03z" fill="#834187"/><path d="M518.97 756H520M381.5 916.5H519" stroke="#834187" stroke-width="2" fill="none"/><path d="M381.53 917.5h-1.03v-2h1.03z" fill="#834187"/><path d="M518.97 916.5H520" stroke="#834187" stroke-width="2" fill="none"/><path d="M681.5 1097.5h-5V421.6h5z" fill="#19967d"/><path fill="#19967d"/><path d="M681.5 1100h-5v-2.56h5z" fill="#19967d"/><use xlink:href="#o" transform="matrix(1,0,0,1,622.7999999999959,378.4) translate(15.730000000000004 14.4)"/><use xlink:href="#p" transform="matrix(1,0,0,1,622.7999999999959,378.4) translate(0.005000000000002558 36)"/><use xlink:href="#n" transform="matrix(1,0,0,1,622.7999999999959,378.4) translate(59.50500000000001 36)"/><path d="M382.66 524.5H678" stroke="#19967d" stroke-width="2" fill="none"/><path d="M382.7 525.5h-1.04v-2h1.03z" fill="#19967d"/><path d="M677.97 524.5H679" stroke="#19967d" stroke-width="2" fill="none"/><path d="M420 700" stroke="#834187" stroke-width="2" fill="none"/><path d="M381.5 685.5H678" stroke="#19967d" stroke-width="2" fill="none"/><path d="M381.53 686.5h-1.03v-2h1.03z" fill="#19967d"/><path d="M677.97 685.5H679M381.5 846.5H678" stroke="#19967d" stroke-width="2" fill="none"/><path d="M381.53 847.5h-1.03v-2h1.03z" fill="#19967d"/><path d="M677.97 846.5H679M381.5 1006.5H678" stroke="#19967d" stroke-width="2" fill="none"/><path d="M381.53 1007.5h-1.03v-2h1.03z" fill="#19967d"/><path d="M677.97 1006.5H679" stroke="#19967d" stroke-width="2" fill="none"/><path d="M821 1017.5h-5V441.6h5z" fill="#ef8d22"/><path fill="#ef8d22"/><path d="M821 1020h-5v-2.56h5z" fill="#ef8d22"/><use xlink:href="#o" transform="matrix(1,0,0,1,774.5499999999938,398.4) translate(3.480000000000004 14.4)"/><use xlink:href="#q" transform="matrix(1,0,0,1,774.5499999999938,398.4) translate(0.005000000000002558 36)"/><use xlink:href="#n" transform="matrix(1,0,0,1,774.5499999999938,398.4) translate(35.005 36)"/><path d="M382.66 493.5H817.5" stroke="#ef8d22" stroke-width="2" fill="none"/><path d="M382.7 494.5h-1.04v-2h1.03z" fill="#ef8d22"/><path d="M817.47 493.5h1.03M381.5 640.5h436" stroke="#ef8d22" stroke-width="2" fill="none"/><path d="M381.53 641.5h-1.03v-2h1.03z" fill="#ef8d22"/><path d="M817.47 640.5h1.03M381.5 801.25h436" stroke="#ef8d22" stroke-width="2" fill="none"/><path d="M381.53 802.25h-1.03v-2h1.03z" fill="#ef8d22"/><path d="M817.47 801.25h1.03M381.5 961.5h436" stroke="#ef8d22" stroke-width="2" fill="none"/><path d="M381.53 962.5h-1.03v-2h1.03z" fill="#ef8d22"/><path d="M817.47 961.5h1.03" stroke="#ef8d22" stroke-width="2" fill="none"/><path d="M321.16 416h60v31h-60z" stroke="#000" fill="#19647e"/><use xlink:href="#i" transform="matrix(1,0,0,1,326.16018841507616,420.989812129892) translate(5 15.775)"/><path d="M382.66 402h39V284.04h-49.6" stroke="#000" stroke-width="2" fill="none"/><path d="M382.7 403h-1.04v-2h1.03zM372.1 285.03h-1.82l.14-.15 1.4-1.85h.27z"/><path d="M339.7 1029.13h60v31h-60z" stroke="#000" fill="#19647e"/><use xlink:href="#h" transform="matrix(1,0,0,1,344.6853059748512,1034.1285484171904) translate(2.549999999999997 15.775)"/><path d="M521 1081.06h19V1120h119v-38.94h19M521.03 1081.06H520M677.97 1081.06H679" stroke="#000" stroke-width="2" fill="none"/><use xlink:href="#r" transform="matrix(1,0,0,1,567.999999999998,1072.8000000000002) translate(9.555 14.4)"/><use xlink:href="#s" transform="matrix(1,0,0,1,567.999999999998,1072.8000000000002) translate(0.004999999999999005 36)"/><path d="M401.2 1044.63H678" stroke="#19967d" stroke-width="2" fill="none"/><path d="M401.2 1045.63h-1v-2h1z" fill="#19967d"/><path d="M677.97 1044.63H679" stroke="#19967d" stroke-width="2" fill="none"/><path d="M321.16 385h60v31h-60z" stroke="#000" fill="#19647e"/><use xlink:href="#t" transform="matrix(1,0,0,1,326.16018841507616,389.98816004284765) translate(5.5 15.775)"/><path d="M610.98 219.72l12.6-.24 21.67 80.4h-50.63L611 219.72z" fill="#28afb0"/><path d="M613.9 206.52h6.75v12.24h-6.75v-12.24z" fill="#208c8d"/><path d="M623.8 201.84c0 3.6-3 6.6-6.6 6.6-3.6 0-6.53-3-6.53-6.6 0-3.6 2.93-6.6 6.53-6.6s6.6 3 6.6 6.6z" fill="#208c8d"/><path d="M630.63 193.92c2.02 1.8 3.14 5.28 3 8.88-.15 3.6-2.48 7.08-2.48 7.08s-1.73 1.68-.3-1.08c1.5-2.76 1.8-3.84 2.02-4.8.15-.96.3-.72.23-2.76-.08-2.04-.98-4.2-1.27-4.44-.3-.24-1.58-2.28-1.58-2.28l.38-.6zM604 193.68c-1.88 1.92-2.92 5.4-2.77 9 .14 3.6 2.32 7.08 2.32 7.08s1.65 1.56.23-1.2c-1.36-2.64-1.65-3.84-1.8-4.8-.23-.96-.3-.72-.3-2.76.07-1.92.97-4.08 1.2-4.32.3-.36 1.5-2.4 1.5-2.4l-.38-.6zM638.5 187.56c4.42 3.24 6.9 9.48 6.6 15.84-.38 6.36-5.55 12.48-5.55 12.48s-3.75 2.88-.52-1.92c3.14-4.8 3.9-6.84 4.35-8.52.45-1.68.67-1.32.52-4.92-.15-3.48-2.1-7.32-2.77-7.8-.68-.48-3.53-4.08-3.53-4.08l.9-1.08zM597.25 186.24c-4.58 3.48-7.05 10.08-6.67 16.8.37 6.72 5.62 13.2 5.62 13.2s3.75 3 .52-2.04c-3.22-5.16-4.05-7.32-4.42-9.12-.45-1.8-.75-1.32-.6-5.16.22-3.72 2.17-7.68 2.85-8.28.68-.48 3.53-4.2 3.53-4.2l-.83-1.2z" fill="#53bfc0"/><path d="M644.73 180.96c6.67 4.56 10.35 13.2 9.82 22.08-.52 8.76-8.25 17.28-8.25 17.28s-5.55 4.08-.75-2.64c4.73-6.72 5.85-9.6 6.53-11.88.6-2.4.97-1.8.75-6.84-.23-4.92-3.16-10.08-4.13-10.92-.98-.72-5.25-5.64-5.25-5.64l1.27-1.44zM590.8 180c-6.97 4.68-10.8 13.44-10.27 22.56.52 9 8.62 17.76 8.62 17.76s5.77 4.08.83-2.76c-4.96-6.96-6.15-9.84-6.83-12.24-.67-2.4-1.05-1.8-.82-6.84.22-5.16 3.3-10.44 4.34-11.16 1.06-.72 5.48-5.76 5.48-5.76L590.8 180z" fill="#53bfc0"/><g><use xlink:href="#u" transform="matrix(1,0,0,1,550,300) translate(1.5999999999999943 14.799999999999999)"/><use xlink:href="#v" transform="matrix(1,0,0,1,550,300) translate(75.39999999999999 14.799999999999999)"/><use xlink:href="#w" transform="matrix(1,0,0,1,550,300) translate(47.025 36.4)"/></g><path d="M604.22 248.93H461V463.7h-78.34v-2H459V246.92h145.22z"/><path d="M382.7 463.7h-1.04v-2h1.03zM605.02 248.93h-.82v-2h1.23z"/><defs><path d="M96-169c-40 0-48 33-48 73s9 75 48 75c24 0 41-14 43-38l32 2c-6 37-31 61-74 61-59 0-76-41-82-99-10-93 101-131 147-64 4 7 5 14 7 22l-32 3c-4-21-16-35-41-35" id="x"/><path d="M106-169C34-169 62-67 57 0H25v-261h32l-1 103c12-21 28-36 61-36 89 0 53 116 60 194h-32v-121c2-32-8-49-39-48" id="y"/><path d="M141-36C126-15 110 5 73 4 37 3 15-17 15-53c-1-64 63-63 125-63 3-35-9-54-41-54-24 1-41 7-42 31l-33-3c5-37 33-52 76-52 45 0 72 20 72 64v82c-1 20 7 32 28 27v20c-31 9-61-2-59-35zM48-53c0 20 12 33 32 33 41-3 63-29 60-74-43 2-92-5-92 41" id="z"/><path d="M135-143c-3-34-86-38-87 0 15 53 115 12 119 90S17 21 10-45l28-5c4 36 97 45 98 0-10-56-113-15-118-90-4-57 82-63 122-42 12 7 21 19 24 35" id="A"/><path d="M24-231v-30h32v30H24zM24 0v-190h32V0H24" id="B"/><g id="a"><use transform="matrix(0.06234567901234565,0,0,0.06234567901234565,0,0)" xlink:href="#x"/><use transform="matrix(0.06234567901234565,0,0,0.06234567901234565,11.222222222222218,0)" xlink:href="#y"/><use transform="matrix(0.06234567901234565,0,0,0.06234567901234565,23.691358024691347,0)" xlink:href="#z"/><use transform="matrix(0.06234567901234565,0,0,0.06234567901234565,36.16049382716048,0)" xlink:href="#A"/><use transform="matrix(0.06234567901234565,0,0,0.06234567901234565,47.382716049382694,0)" xlink:href="#A"/><use transform="matrix(0.06234567901234565,0,0,0.06234567901234565,58.60493827160491,0)" xlink:href="#B"/><use transform="matrix(0.06234567901234565,0,0,0.06234567901234565,63.530246913580214,0)" xlink:href="#A"/></g><path d="M115-194c53 0 69 39 70 98 0 66-23 100-70 100C84 3 66-7 56-30L54 0H23l1-261h32v101c10-23 28-34 59-34zm-8 174c40 0 45-34 45-75 0-40-5-75-45-74-42 0-51 32-51 76 0 43 10 73 51 73" id="C"/><path d="M59-47c-2 24 18 29 38 22v24C64 9 27 4 27-40v-127H5v-23h24l9-43h21v43h35v23H59v120" id="D"/><path d="M100-194c62-1 85 37 85 99 1 63-27 99-86 99S16-35 15-95c0-66 28-99 85-99zM99-20c44 1 53-31 53-75 0-43-8-75-51-75s-53 32-53 75 10 74 51 75" id="E"/><path d="M117-194c89-4 53 116 60 194h-32v-121c0-31-8-49-39-48C34-167 62-67 57 0H25l-1-190h30c1 10-1 24 2 32 11-22 29-35 61-36" id="F"/><g id="b"><use transform="matrix(0.06234567901234565,0,0,0.06234567901234565,0,0)" xlink:href="#C"/><use transform="matrix(0.06234567901234565,0,0,0.06234567901234565,12.46913580246913,0)" xlink:href="#z"/><use transform="matrix(0.06234567901234565,0,0,0.06234567901234565,24.93827160493826,0)" xlink:href="#A"/><use transform="matrix(0.06234567901234565,0,0,0.06234567901234565,36.16049382716048,0)" xlink:href="#D"/><use transform="matrix(0.06234567901234565,0,0,0.06234567901234565,42.39506172839504,0)" xlink:href="#B"/><use transform="matrix(0.06234567901234565,0,0,0.06234567901234565,47.32037037037035,0)" xlink:href="#E"/><use transform="matrix(0.06234567901234565,0,0,0.06234567901234565,59.78950617283948,0)" xlink:href="#F"/></g><path d="M30-248c87 1 191-15 191 75 0 78-77 80-158 76V0H30v-248zm33 125c57 0 124 11 124-50 0-59-68-47-124-48v98" id="G"/><path d="M232-93c-1 65-40 97-104 97C67 4 28-28 28-90v-158h33c8 89-33 224 67 224 102 0 64-133 71-224h33v155" id="H"/><path d="M160-131c35 5 61 23 61 61C221 17 115-2 30 0v-248c76 3 177-17 177 60 0 33-19 50-47 57zm-97-11c50-1 110 9 110-42 0-47-63-36-110-37v79zm0 115c55-2 124 14 124-45 0-56-70-42-124-44v89" id="I"/><path d="M30 0v-248h33v221h125V0H30" id="J"/><path d="M33 0v-248h34V0H33" id="K"/><path d="M212-179c-10-28-35-45-73-45-59 0-87 40-87 99 0 60 29 101 89 101 43 0 62-24 78-52l27 14C228-24 195 4 139 4 59 4 22-46 18-125c-6-104 99-153 187-111 19 9 31 26 39 46" id="L"/><g id="c"><use transform="matrix(0.05,0,0,0.05,0,0)" xlink:href="#G"/><use transform="matrix(0.05,0,0,0.05,12,0)" xlink:href="#H"/><use transform="matrix(0.05,0,0,0.05,24.950000000000003,0)" xlink:href="#I"/><use transform="matrix(0.05,0,0,0.05,36.95,0)" xlink:href="#J"/><use transform="matrix(0.05,0,0,0.05,46.95,0)" xlink:href="#K"/><use transform="matrix(0.05,0,0,0.05,51.95,0)" xlink:href="#L"/></g><path d="M190 0L58-211 59 0H30v-248h39L202-35l-2-213h31V0h-41" id="M"/><path d="M30 0v-248h187v28H63v79h144v27H63v87h162V0H30" id="N"/><path d="M127-220V0H93v-220H8v-28h204v28h-85" id="O"/><path d="M266 0h-40l-56-210L115 0H75L2-248h35L96-30l15-64 43-154h32l59 218 59-218h35" id="P"/><path d="M140-251c81 0 123 46 123 126C263-46 219 4 140 4 59 4 17-45 17-125s42-126 123-126zm0 227c63 0 89-41 89-101s-29-99-89-99c-61 0-89 39-89 99S79-25 140-24" id="Q"/><path d="M233-177c-1 41-23 64-60 70L243 0h-38l-65-103H63V0H30v-248c88 3 205-21 203 71zM63-129c60-2 137 13 137-47 0-61-80-42-137-45v92" id="R"/><path d="M194 0L95-120 63-95V0H30v-248h33v124l119-124h40L117-140 236 0h-42" id="S"/><g id="d"><use transform="matrix(0.05,0,0,0.05,0,0)" xlink:href="#M"/><use transform="matrix(0.05,0,0,0.05,12.950000000000001,0)" xlink:href="#N"/><use transform="matrix(0.05,0,0,0.05,24.950000000000003,0)" xlink:href="#O"/><use transform="matrix(0.05,0,0,0.05,35.900000000000006,0)" xlink:href="#P"/><use transform="matrix(0.05,0,0,0.05,52.85,0)" xlink:href="#Q"/><use transform="matrix(0.05,0,0,0.05,66.85000000000001,0)" xlink:href="#R"/><use transform="matrix(0.05,0,0,0.05,79.80000000000001,0)" xlink:href="#S"/></g><path d="M85-194c31 0 48 13 60 33l-1-100h32l1 261h-30c-2-10 0-23-3-31C134-8 116 4 85 4 32 4 16-35 15-94c0-66 23-100 70-100zm9 24c-40 0-46 34-46 75 0 40 6 74 45 74 42 0 51-32 51-76 0-42-9-74-50-73" id="T"/><path d="M100-194c63 0 86 42 84 106H49c0 40 14 67 53 68 26 1 43-12 49-29l28 8c-11 28-37 45-77 45C44 4 14-33 15-96c1-61 26-98 85-98zm52 81c6-60-76-77-97-28-3 7-6 17-6 28h103" id="U"/><path d="M16-82v-28h88v28H16" id="V"/><path d="M101-251c68 0 85 55 85 127S166 4 100 4C33 4 14-52 14-124c0-73 17-127 87-127zm-1 229c47 0 54-49 54-102s-4-102-53-102c-51 0-55 48-55 102 0 53 5 102 54 102" id="W"/><g id="e"><use transform="matrix(0.06234567901234565,0,0,0.06234567901234565,0,0)" xlink:href="#F"/><use transform="matrix(0.06234567901234565,0,0,0.06234567901234565,12.46913580246913,0)" xlink:href="#E"/><use transform="matrix(0.06234567901234565,0,0,0.06234567901234565,24.93827160493826,0)" xlink:href="#T"/><use transform="matrix(0.06234567901234565,0,0,0.06234567901234565,37.40740740740739,0)" xlink:href="#U"/><use transform="matrix(0.06234567901234565,0,0,0.06234567901234565,49.87654320987652,0)" xlink:href="#V"/><use transform="matrix(0.06234567901234565,0,0,0.06234567901234565,57.29567901234566,0)" xlink:href="#W"/></g><path d="M27 0v-27h64v-190l-56 39v-29l58-41h29v221h61V0H27" id="X"/><g id="f"><use transform="matrix(0.06234567901234565,0,0,0.06234567901234565,0,0)" xlink:href="#F"/><use transform="matrix(0.06234567901234565,0,0,0.06234567901234565,12.46913580246913,0)" xlink:href="#E"/><use transform="matrix(0.06234567901234565,0,0,0.06234567901234565,24.93827160493826,0)" xlink:href="#T"/><use transform="matrix(0.06234567901234565,0,0,0.06234567901234565,37.40740740740739,0)" xlink:href="#U"/><use transform="matrix(0.06234567901234565,0,0,0.06234567901234565,49.87654320987652,0)" xlink:href="#V"/><use transform="matrix(0.06234567901234565,0,0,0.06234567901234565,57.29567901234566,0)" xlink:href="#X"/></g><path d="M101-251c82-7 93 87 43 132L82-64C71-53 59-42 53-27h129V0H18c2-99 128-94 128-182 0-28-16-43-45-43s-46 15-49 41l-32-3c6-41 34-60 81-64" id="Y"/><g id="g"><use transform="matrix(0.06234567901234565,0,0,0.06234567901234565,0,0)" xlink:href="#F"/><use transform="matrix(0.06234567901234565,0,0,0.06234567901234565,12.46913580246913,0)" xlink:href="#E"/><use transform="matrix(0.06234567901234565,0,0,0.06234567901234565,24.93827160493826,0)" xlink:href="#T"/><use transform="matrix(0.06234567901234565,0,0,0.06234567901234565,37.40740740740739,0)" xlink:href="#U"/><use transform="matrix(0.06234567901234565,0,0,0.06234567901234565,49.87654320987652,0)" xlink:href="#V"/><use transform="matrix(0.06234567901234565,0,0,0.06234567901234565,57.29567901234566,0)" xlink:href="#Y"/></g><path fill="#fff" d="M210-169c-67 3-38 105-44 169h-31v-121c0-29-5-50-35-48C34-165 62-65 56 0H25l-1-190h30c1 10-1 24 2 32 10-44 99-50 107 0 11-21 27-35 58-36 85-2 47 119 55 194h-31v-121c0-29-5-49-35-48" id="Z"/><path fill="#fff" d="M177-190C167-65 218 103 67 71c-23-6-38-20-44-43l32-5c15 47 100 32 89-28v-30C133-14 115 1 83 1 29 1 15-40 15-95c0-56 16-97 71-98 29-1 48 16 59 35 1-10 0-23 2-32h30zM94-22c36 0 50-32 50-73 0-42-14-75-50-75-39 0-46 34-46 75s6 73 46 73" id="aa"/><path fill="#fff" d="M59-47c-2 24 18 29 38 22v24C64 9 27 4 27-40v-127H5v-23h24l9-43h21v43h35v23H59v120" id="ab"/><g id="h"><use transform="matrix(0.05,0,0,0.05,0,0)" xlink:href="#Z"/><use transform="matrix(0.05,0,0,0.05,14.950000000000001,0)" xlink:href="#aa"/><use transform="matrix(0.05,0,0,0.05,24.950000000000003,0)" xlink:href="#Z"/><use transform="matrix(0.05,0,0,0.05,39.900000000000006,0)" xlink:href="#ab"/></g><path fill="#fff" d="M100-194c63 0 86 42 84 106H49c0 40 14 67 53 68 26 1 43-12 49-29l28 8c-11 28-37 45-77 45C44 4 14-33 15-96c1-61 26-98 85-98zm52 81c6-60-76-77-97-28-3 7-6 17-6 28h103" id="ac"/><path fill="#fff" d="M117-194c89-4 53 116 60 194h-32v-121c0-31-8-49-39-48C34-167 62-67 57 0H25l-1-190h30c1 10-1 24 2 32 11-22 29-35 61-36" id="ad"/><path fill="#fff" d="M100-194c62-1 85 37 85 99 1 63-27 99-86 99S16-35 15-95c0-66 28-99 85-99zM99-20c44 1 53-31 53-75 0-43-8-75-51-75s-53 32-53 75 10 74 51 75" id="ae"/><path fill="#fff" d="M27 0v-27h64v-190l-56 39v-29l58-41h29v221h61V0H27" id="af"/><g id="i"><use transform="matrix(0.05,0,0,0.05,0,0)" xlink:href="#ac"/><use transform="matrix(0.05,0,0,0.05,10,0)" xlink:href="#ad"/><use transform="matrix(0.05,0,0,0.05,20,0)" xlink:href="#ae"/><use transform="matrix(0.05,0,0,0.05,30,0)" xlink:href="#af"/></g><path fill="#fff" d="M101-251c82-7 93 87 43 132L82-64C71-53 59-42 53-27h129V0H18c2-99 128-94 128-182 0-28-16-43-45-43s-46 15-49 41l-32-3c6-41 34-60 81-64" id="ag"/><g id="j"><use transform="matrix(0.05,0,0,0.05,0,0)" xlink:href="#ac"/><use transform="matrix(0.05,0,0,0.05,10,0)" xlink:href="#ad"/><use transform="matrix(0.05,0,0,0.05,20,0)" xlink:href="#ae"/><use transform="matrix(0.05,0,0,0.05,30,0)" xlink:href="#ag"/></g><path fill="#fff" d="M54-142c48-35 137-8 131 61C196 18 31 33 14-55l32-4c7 23 22 37 52 37 35-1 51-22 54-58 4-55-73-65-99-34H22l8-134h141v27H59" id="ah"/><g id="k"><use transform="matrix(0.05,0,0,0.05,0,0)" xlink:href="#ac"/><use transform="matrix(0.05,0,0,0.05,10,0)" xlink:href="#ad"/><use transform="matrix(0.05,0,0,0.05,20,0)" xlink:href="#ae"/><use transform="matrix(0.05,0,0,0.05,30,0)" xlink:href="#ah"/></g><path d="M177-190C167-65 218 103 67 71c-23-6-38-20-44-43l32-5c15 47 100 32 89-28v-30C133-14 115 1 83 1 29 1 15-40 15-95c0-56 16-97 71-98 29-1 48 16 59 35 1-10 0-23 2-32h30zM94-22c36 0 50-32 50-73 0-42-14-75-50-75-39 0-46 34-46 75s6 73 46 73" id="ai"/><path d="M114-163C36-179 61-72 57 0H25l-1-190h30c1 12-1 29 2 39 6-27 23-49 58-41v29" id="aj"/><g id="l"><use transform="matrix(0.05,0,0,0.05,0,0)" xlink:href="#K"/><use transform="matrix(0.05,0,0,0.05,5,0)" xlink:href="#F"/><use transform="matrix(0.05,0,0,0.05,15,0)" xlink:href="#D"/><use transform="matrix(0.05,0,0,0.05,20,0)" xlink:href="#U"/><use transform="matrix(0.05,0,0,0.05,30,0)" xlink:href="#ai"/><use transform="matrix(0.05,0,0,0.05,40,0)" xlink:href="#aj"/><use transform="matrix(0.05,0,0,0.05,45.95,0)" xlink:href="#z"/><use transform="matrix(0.05,0,0,0.05,55.95,0)" xlink:href="#D"/><use transform="matrix(0.05,0,0,0.05,60.95,0)" xlink:href="#U"/><use transform="matrix(0.05,0,0,0.05,70.95,0)" xlink:href="#T"/></g><g id="m"><use transform="matrix(0.05,0,0,0.05,0,0)" xlink:href="#X"/><use transform="matrix(0.05,0,0,0.05,10,0)" xlink:href="#ai"/></g><path d="M185-189c-5-48-123-54-124 2 14 75 158 14 163 119 3 78-121 87-175 55-17-10-28-26-33-46l33-7c5 56 141 63 141-1 0-78-155-14-162-118-5-82 145-84 179-34 5 7 8 16 11 25" id="ak"/><path d="M206 0h-36l-40-164L89 0H53L-1-190h32L70-26l43-164h34l41 164 42-164h31" id="al"/><g id="n"><use transform="matrix(0.05,0,0,0.05,0,0)" xlink:href="#ak"/><use transform="matrix(0.05,0,0,0.05,12,0)" xlink:href="#al"/><use transform="matrix(0.05,0,0,0.05,24.950000000000003,0)" xlink:href="#B"/><use transform="matrix(0.05,0,0,0.05,28.900000000000002,0)" xlink:href="#D"/><use transform="matrix(0.05,0,0,0.05,33.900000000000006,0)" xlink:href="#x"/><use transform="matrix(0.05,0,0,0.05,42.900000000000006,0)" xlink:href="#y"/></g><g id="o"><use transform="matrix(0.05,0,0,0.05,0,0)" xlink:href="#K"/><use transform="matrix(0.05,0,0,0.05,5,0)" xlink:href="#F"/><use transform="matrix(0.05,0,0,0.05,15,0)" xlink:href="#D"/><use transform="matrix(0.05,0,0,0.05,20,0)" xlink:href="#U"/><use transform="matrix(0.05,0,0,0.05,30,0)" xlink:href="#ai"/><use transform="matrix(0.05,0,0,0.05,40,0)" xlink:href="#aj"/><use transform="matrix(0.05,0,0,0.05,45.95,0)" xlink:href="#z"/><use transform="matrix(0.05,0,0,0.05,55.95,0)" xlink:href="#D"/><use transform="matrix(0.05,0,0,0.05,60.95,0)" xlink:href="#U"/><use transform="matrix(0.05,0,0,0.05,70.95,0)" xlink:href="#T"/></g><path d="M240 0l2-218c-23 76-54 145-80 218h-23L58-218 59 0H30v-248h44l77 211c21-75 51-140 76-211h43V0h-30" id="am"/><path d="M143 4C61 4 22-44 18-125c-5-107 100-154 193-111 17 8 29 25 37 43l-32 9c-13-25-37-40-76-40-61 0-88 39-88 99 0 61 29 100 91 101 35 0 62-11 79-27v-45h-74v-28h105v86C228-13 192 4 143 4" id="an"/><g id="p"><use transform="matrix(0.05,0,0,0.05,0,0)" xlink:href="#am"/><use transform="matrix(0.05,0,0,0.05,14.950000000000001,0)" xlink:href="#an"/><use transform="matrix(0.05,0,0,0.05,28.950000000000003,0)" xlink:href="#am"/><use transform="matrix(0.05,0,0,0.05,43.900000000000006,0)" xlink:href="#O"/></g><g id="q"><use transform="matrix(0.05,0,0,0.05,0,0)" xlink:href="#X"/><use transform="matrix(0.05,0,0,0.05,10,0)" xlink:href="#W"/><use transform="matrix(0.05,0,0,0.05,20,0)" xlink:href="#ai"/></g><g id="r"><use transform="matrix(0.05,0,0,0.05,0,0)" xlink:href="#T"/><use transform="matrix(0.05,0,0,0.05,10,0)" xlink:href="#B"/><use transform="matrix(0.05,0,0,0.05,13.949999999999998,0)" xlink:href="#aj"/><use transform="matrix(0.05,0,0,0.05,19.9,0)" xlink:href="#U"/><use transform="matrix(0.05,0,0,0.05,29.899999999999995,0)" xlink:href="#x"/><use transform="matrix(0.05,0,0,0.05,38.9,0)" xlink:href="#D"/></g><g id="s"><use transform="matrix(0.05,0,0,0.05,0,0)" xlink:href="#x"/><use transform="matrix(0.05,0,0,0.05,9,0)" xlink:href="#E"/><use transform="matrix(0.05,0,0,0.05,19,0)" xlink:href="#F"/><use transform="matrix(0.05,0,0,0.05,29,0)" xlink:href="#F"/><use transform="matrix(0.05,0,0,0.05,39,0)" xlink:href="#U"/><use transform="matrix(0.05,0,0,0.05,49,0)" xlink:href="#x"/><use transform="matrix(0.05,0,0,0.05,58,0)" xlink:href="#D"/></g><path fill="#fff" d="M135-143c-3-34-86-38-87 0 15 53 115 12 119 90S17 21 10-45l28-5c4 36 97 45 98 0-10-56-113-15-118-90-4-57 82-63 122-42 12 7 21 19 24 35" id="ao"/><g id="t"><use transform="matrix(0.05,0,0,0.05,0,0)" xlink:href="#ac"/><use transform="matrix(0.05,0,0,0.05,10,0)" xlink:href="#ad"/><use transform="matrix(0.05,0,0,0.05,20,0)" xlink:href="#ao"/><use transform="matrix(0.05,0,0,0.05,29,0)" xlink:href="#af"/></g><path d="M24 0v-261h32V0H24" id="ap"/><g id="u"><use transform="matrix(0.05,0,0,0.05,0,0)" xlink:href="#P"/><use transform="matrix(0.05,0,0,0.05,16.95,0)" xlink:href="#B"/><use transform="matrix(0.05,0,0,0.05,20.9,0)" xlink:href="#aj"/><use transform="matrix(0.05,0,0,0.05,26.849999999999994,0)" xlink:href="#U"/><use transform="matrix(0.05,0,0,0.05,36.849999999999994,0)" xlink:href="#ap"/><use transform="matrix(0.05,0,0,0.05,40.8,0)" xlink:href="#U"/><use transform="matrix(0.05,0,0,0.05,50.8,0)" xlink:href="#A"/><use transform="matrix(0.05,0,0,0.05,59.79999999999999,0)" xlink:href="#A"/></g><path d="M205 0l-28-72H64L36 0H1l101-248h38L239 0h-34zm-38-99l-47-123c-12 45-31 82-46 123h93" id="aq"/><g id="v"><use transform="matrix(0.05,0,0,0.05,0,0)" xlink:href="#aq"/><use transform="matrix(0.05,0,0,0.05,12,0)" xlink:href="#x"/><use transform="matrix(0.05,0,0,0.05,21,0)" xlink:href="#x"/><use transform="matrix(0.05,0,0,0.05,30,0)" xlink:href="#U"/><use transform="matrix(0.05,0,0,0.05,40,0)" xlink:href="#A"/><use transform="matrix(0.05,0,0,0.05,49,0)" xlink:href="#A"/></g><g id="w"><use transform="matrix(0.05,0,0,0.05,0,0)" xlink:href="#G"/><use transform="matrix(0.05,0,0,0.05,12,0)" xlink:href="#E"/><use transform="matrix(0.05,0,0,0.05,22,0)" xlink:href="#B"/><use transform="matrix(0.05,0,0,0.05,25.950000000000003,0)" xlink:href="#F"/><use transform="matrix(0.05,0,0,0.05,35.95,0)" xlink:href="#D"/></g></defs></g></svg>