<svg xmlns="http://www.w3.org/2000/svg" xmlns:xlink="http://www.w3.org/1999/xlink" xmlns:lucid="lucid" width="1169.14" height="760"><g transform="translate(-20 -340)" lucid:page-tab-id="0_0"><path d="M40 440h160v640H40z" fill="#eee5ee"/><path d="M49.7 440h9.7m4.84 0h9.7m4.85 0h9.68m4.85 0h9.7m4.85 0h9.7m4.84 0h9.7m4.85 0h9.7m4.85 0h9.7m4.84 0h9.7m4.85 0h9.7m4.85 0H200v4.96m0 4.96v9.92m0 4.97v9.93m0 4.96v9.9m0 4.97v9.93m0 4.96v9.92m0 4.96v9.92m0 4.96v9.93m0 4.96v9.93m0 4.96v9.9m0 4.98v9.92m0 4.96v9.92m0 4.96v9.93m0 4.96v9.92m0 4.96v9.93m0 4.96v9.92m0 4.96v9.92m0 4.96v9.92m0 4.97v9.92m0 4.96v9.92m0 4.96v9.94m0 4.96v9.92m0 4.96v9.92m0 4.96v9.93m0 4.95v9.92m0 4.96v9.92m0 4.97v9.92m0 4.96v9.92m0 4.96v9.93m0 4.97v9.92m0 4.95v9.92m0 4.96v9.93m0 4.96v9.92m0 4.96v9.92m0 4.97v9.9m0 4.97v9.92m0 4.95v9.93m0 4.96v9.92m0 4.96v9.92m0 4.96v9.93m0 4.96v9.9m0 4.97v9.92m0 4.96v9.92m0 4.96v4.96h-4.85m-4.85 0h-9.7m-4.84 0h-9.7m-4.85 0h-9.68m-4.85 0h-9.7m-4.85 0h-9.7m-4.84 0h-9.7m-4.85 0h-9.7m-4.85 0h-9.7m-4.84 0h-9.7m-4.85 0h-9.7m-4.85 0H40v-4.96m0-4.96v-9.92m0-4.97v-9.93m0-4.96v-9.9m0-4.97v-9.93m0-4.96v-9.92m0-4.96v-9.92m0-4.96v-9.93m0-4.96v-9.93m0-4.96v-9.9m0-4.98v-9.92m0-4.96v-9.92m0-4.96v-9.93m0-4.96v-9.92m0-4.96v-9.93m0-4.96v-9.92m0-4.96v-9.92m0-4.96v-9.92m0-4.97v-9.92m0-4.96v-9.92m0-4.96v-9.94m0-4.96v-9.92m0-4.96v-9.92m0-4.96v-9.93m0-4.95v-9.92m0-4.96v-9.92m0-4.97v-9.92m0-4.96v-9.92m0-4.96v-9.93m0-4.97v-9.92m0-4.95v-9.92m0-4.96v-9.93m0-4.96v-9.92m0-4.96v-9.92m0-4.97V569m0-4.97v-9.92m0-4.95v-9.93m0-4.96v-9.92m0-4.96v-9.92m0-4.96v-9.93m0-4.96v-9.9m0-4.97v-9.92m0-4.96v-9.92m0-4.96V440h4.85" stroke="#000" fill="none"/><use xlink:href="#a" transform="matrix(1,0,0,1,45,445) translate(75.5 19.73333333333333)"/><use xlink:href="#b" transform="matrix(1,0,0,1,45,445) translate(20.719444444444456 49.33333333333333)"/><use xlink:href="#c" transform="matrix(1,0,0,1,45,445) translate(49.49722222222223 78.93333333333332)"/><use xlink:href="#d" transform="matrix(1,0,0,1,45,445) translate(13.901851851851873 108.53333333333332)"/><path d="M240 440h160v640H240z" fill="#eee5ee"/><path d="M249.7 440h9.7m4.84 0h9.7m4.85 0h9.68m4.85 0h9.7m4.85 0h9.7m4.84 0h9.7m4.85 0h9.7m4.85 0h9.7m4.84 0h9.7m4.85 0h9.7m4.85 0H400v4.96m0 4.96v9.92m0 4.97v9.93m0 4.96v9.9m0 4.97v9.93m0 4.96v9.92m0 4.96v9.92m0 4.96v9.93m0 4.96v9.93m0 4.96v9.9m0 4.98v9.92m0 4.96v9.92m0 4.96v9.93m0 4.96v9.92m0 4.96v9.93m0 4.96v9.92m0 4.96v9.92m0 4.96v9.92m0 4.97v9.92m0 4.96v9.92m0 4.96v9.94m0 4.96v9.92m0 4.96v9.92m0 4.96v9.93m0 4.95v9.92m0 4.96v9.92m0 4.97v9.92m0 4.96v9.92m0 4.96v9.93m0 4.97v9.92m0 4.95v9.92m0 4.96v9.93m0 4.96v9.92m0 4.96v9.92m0 4.97v9.9m0 4.97v9.92m0 4.95v9.93m0 4.96v9.92m0 4.96v9.92m0 4.96v9.93m0 4.96v9.9m0 4.97v9.92m0 4.96v9.92m0 4.96v4.96h-4.85m-4.85 0h-9.7m-4.84 0h-9.7m-4.85 0h-9.68m-4.85 0h-9.7m-4.85 0h-9.7m-4.84 0h-9.7m-4.85 0h-9.7m-4.85 0h-9.7m-4.84 0h-9.7m-4.85 0h-9.7m-4.85 0H240v-4.96m0-4.96v-9.92m0-4.97v-9.93m0-4.96v-9.9m0-4.97v-9.93m0-4.96v-9.92m0-4.96v-9.92m0-4.96v-9.93m0-4.96v-9.93m0-4.96v-9.9m0-4.98v-9.92m0-4.96v-9.92m0-4.96v-9.93m0-4.96v-9.92m0-4.96v-9.93m0-4.96v-9.92m0-4.96v-9.92m0-4.96v-9.92m0-4.97v-9.92m0-4.96v-9.92m0-4.96v-9.94m0-4.96v-9.92m0-4.96v-9.92m0-4.96v-9.93m0-4.95v-9.92m0-4.96v-9.92m0-4.97v-9.92m0-4.96v-9.92m0-4.96v-9.93m0-4.97v-9.92m0-4.95v-9.92m0-4.96v-9.93m0-4.96v-9.92m0-4.96v-9.92m0-4.97V569m0-4.97v-9.92m0-4.95v-9.93m0-4.96v-9.92m0-4.96v-9.92m0-4.96v-9.93m0-4.96v-9.9m0-4.97v-9.92m0-4.96v-9.92m0-4.96V440h4.85" stroke="#000" fill="none"/><use xlink:href="#a" transform="matrix(1,0,0,1,245,445) translate(75.5 19.73333333333333)"/><use xlink:href="#b" transform="matrix(1,0,0,1,245,445) translate(20.719444444444456 49.33333333333333)"/><use xlink:href="#e" transform="matrix(1,0,0,1,245,445) translate(0.9518518518518704 78.93333333333332)"/><use xlink:href="#f" transform="matrix(1,0,0,1,245,445) translate(87.07962962962962 78.93333333333332)"/><path d="M640.9 1080V494.64h528.24V1080z" stroke="#000" fill="#ddcecd"/><use xlink:href="#g" transform="matrix(6.123233995736766e-17,-1,1,6.123233995736766e-17,645.8941504824014,1075) translate(503.7413580246914 517.7471413475555)"/><path d="M974 670h166v200H974z" fill-opacity="0"/><path d="M983.88 670h3.95m7.9 0h3.96m7.9 0h3.95m7.9 0h3.95m7.9 0h3.96m7.9 0h3.96m7.9 0h3.96m7.9 0h3.95m7.9 0h3.96m7.9 0h3.95m7.9 0h3.95m7.9 0h3.96m7.9 0h3.96m7.9 0h1.98v1.96m0 7.84v3.93m0 7.84v3.92m0 7.83v3.92m0 7.85v3.92m0 7.84v3.92m0 7.85v3.92m0 7.84v3.9m0 7.86v3.92m0 7.84v3.92m0 7.85v3.9m0 7.85v3.92m0 7.85v3.92m0 7.84v3.92m0 7.85v3.92m0 7.84v3.93m0 7.84v3.93m0 7.84V870h-1.98m-7.9 0h-3.95m-7.9 0h-3.96m-7.9 0h-3.95m-7.9 0h-3.95m-7.9 0h-3.96m-7.9 0h-3.96m-7.9 0h-3.96m-7.9 0h-3.95m-7.9 0h-3.96m-7.9 0h-3.95m-7.9 0h-3.95m-7.9 0h-3.96m-7.9 0h-3.96m-7.9 0H974v-1.96m0-7.84v-3.93m0-7.84v-3.92m0-7.83v-3.92m0-7.85v-3.92m0-7.84v-3.92m0-7.85v-3.92m0-7.84v-3.9m0-7.86v-3.92m0-7.84v-3.92m0-7.85v-3.9m0-7.85v-3.92m0-7.85v-3.92m0-7.84v-3.92m0-7.85v-3.92m0-7.84v-3.93m0-7.84v-3.93m0-7.84V670h1.98" stroke="#000" stroke-width="2" fill="none"/><use xlink:href="#h" transform="matrix(1,0,0,1,979,675) translate(0 14.4)"/><path d="M668 840h282.1v200H668z" fill-opacity="0"/><path d="M677.8 840h3.9m7.85 0h3.92m7.83 0h3.92m7.84 0h3.92m7.83 0h3.93m7.84 0h3.9m7.85 0h3.92m7.83 0H764m7.83 0h3.92m7.83 0h3.92m7.84 0h3.92m7.83 0h3.9m7.85 0h3.9m7.85 0h3.92m7.83 0h3.92m7.84 0h3.93m7.83 0h3.92m7.84 0h3.9m7.85 0h3.92m7.82 0h3.92m7.84 0h3.92m7.83 0h3.92m7.84 0h3.9m7.84 0h1.96v1.96m0 7.84v3.93m0 7.84v3.92m0 7.83v3.92m0 7.85v3.92m0 7.84v3.92m0 7.85v3.92m0 7.84v3.9m0 7.86v3.92m0 7.84v3.92m0 7.85v3.9m0 7.85v3.92m0 7.85v3.92m0 7.84v3.92m0 7.85v3.92m0 7.84v3.93m0 7.84v3.93m0 7.84v1.96h-1.96m-7.83 0h-3.9m-7.85 0h-3.92m-7.83 0h-3.92m-7.84 0h-3.92m-7.83 0h-3.93m-7.84 0h-3.9m-7.85 0h-3.92m-7.83 0h-3.92m-7.83 0h-3.92m-7.83 0h-3.92m-7.84 0h-3.9m-7.85 0h-3.9m-7.84 0h-3.92m-7.84 0h-3.92m-7.83 0h-3.92m-7.84 0h-3.93m-7.83 0h-3.92m-7.84 0h-3.9m-7.85 0h-3.92m-7.82 0h-3.92m-7.84 0h-3.92m-7.83 0h-3.92m-7.84 0h-3.9m-7.84 0H668v-1.96m0-7.84v-3.93m0-7.84v-3.92m0-7.83v-3.92m0-7.85v-3.92m0-7.84v-3.92m0-7.85v-3.92m0-7.84v-3.9m0-7.86v-3.92m0-7.84v-3.92m0-7.85v-3.9m0-7.85v-3.92m0-7.85v-3.92m0-7.84v-3.92m0-7.85v-3.92m0-7.84v-3.93m0-7.84v-3.93m0-7.84V840h1.96" stroke="#000" stroke-width="2" fill="none"/><use xlink:href="#i" transform="matrix(1,0,0,1,673,845) translate(0 14.4)"/><path d="M668.82 520h282.1v200h-282.1z" fill-opacity="0"/><path d="M678.62 520h3.92m7.83 0h3.92m7.83 0h3.9m7.85 0h3.92m7.84 0h3.9m7.85 0h3.9m7.84 0h3.92m7.84 0h3.92m7.83 0h3.92m7.84 0h3.92m7.84 0h3.92m7.83 0h3.93m7.84 0h3.92m7.82 0h3.92m7.84 0h3.92m7.83 0h3.92m7.84 0h3.9m7.84 0h3.92m7.83 0h3.9m7.85 0h3.92m7.83 0h3.92m7.84 0h3.9m7.85 0h3.93m7.84 0h1.95v1.96m0 7.84v3.93m0 7.84v3.92m0 7.83v3.92m0 7.85v3.92m0 7.84v3.92m0 7.85v3.92m0 7.84v3.9m0 7.86v3.92m0 7.84v3.92m0 7.85v3.9m0 7.85v3.92m0 7.85v3.92m0 7.84v3.92m0 7.85v3.92m0 7.84v3.93m0 7.84v3.93m0 7.84V720h-1.95m-7.84 0h-3.92m-7.83 0h-3.9m-7.85 0h-3.92m-7.83 0h-3.92m-7.84 0h-3.9m-7.84 0h-3.92m-7.84 0h-3.9m-7.85 0h-3.92m-7.83 0h-3.92m-7.84 0h-3.92m-7.83 0h-3.93m-7.84 0h-3.92m-7.82 0h-3.92m-7.84 0h-3.9m-7.85 0h-3.92m-7.83 0h-3.92m-7.84 0h-3.92m-7.83 0h-3.9m-7.85 0h-3.9m-7.85 0h-3.92m-7.84 0h-3.9m-7.85 0h-3.93m-7.83 0h-3.92m-7.84 0h-1.96v-1.96m0-7.84v-3.93m0-7.84v-3.92m0-7.83v-3.92m0-7.85v-3.92m0-7.84v-3.92m0-7.85v-3.92m0-7.84v-3.9m0-7.86v-3.92m0-7.84v-3.92m0-7.85v-3.9m0-7.85v-3.92m0-7.85v-3.92m0-7.84v-3.92m0-7.85v-3.92m0-7.84v-3.93m0-7.84v-3.93m0-7.84V520h1.96" stroke="#000" stroke-width="2" fill="none"/><use xlink:href="#j" transform="matrix(1,0,0,1,673.8232442302808,525) translate(0 14.4)"/><path d="M668 740h282.1v80H668z" fill-opacity="0"/><path d="M677.8 740h3.9m7.85 0h3.92m7.83 0h3.92m7.84 0h3.92m7.83 0h3.93m7.84 0h3.9m7.85 0h3.92m7.83 0H764m7.83 0h3.92m7.83 0h3.92m7.84 0h3.92m7.83 0h3.9m7.85 0h3.9m7.85 0h3.92m7.83 0h3.92m7.84 0h3.93m7.83 0h3.92m7.84 0h3.9m7.85 0h3.92m7.82 0h3.92m7.84 0h3.92m7.83 0h3.92m7.84 0h3.9m7.84 0h1.96v1.9m0 7.62v3.8m0 7.63v3.8m0 7.63v3.8m0 7.63v3.82m0 7.62v3.8m0 7.63v3.8m0 7.63v1.9h-1.96m-7.83 0h-3.9m-7.85 0h-3.92m-7.83 0h-3.92m-7.84 0h-3.92m-7.83 0h-3.93m-7.84 0h-3.9m-7.85 0h-3.92m-7.83 0h-3.92m-7.83 0h-3.92m-7.83 0h-3.92m-7.84 0h-3.9m-7.85 0h-3.9m-7.84 0h-3.92m-7.84 0h-3.92m-7.83 0h-3.92m-7.84 0h-3.93m-7.83 0h-3.92m-7.84 0h-3.9m-7.85 0h-3.92m-7.82 0h-3.92m-7.84 0h-3.92m-7.83 0h-3.92m-7.84 0h-3.9m-7.84 0H668v-1.9m0-7.62v-3.8m0-7.63v-3.8m0-7.63v-3.8m0-7.63v-3.82m0-7.62v-3.8m0-7.63v-3.8m0-7.63V740h1.96" stroke="#000" stroke-width="2" fill="none"/><use xlink:href="#k" transform="matrix(1,0,0,1,673,745) translate(0 14.4)"/><use xlink:href="#l" transform="matrix(1,0,0,1,673,745) translate(91.40000000000002 14.4)"/><path d="M761.95 437c-12.12 0-21.95-9.85-21.95-22 0-9.72 5.94-17.92 15.16-20.92-.53-28.58 36.05-34.08 50.68-23.08 7.3-16.5 43.88-11 43.88 5.5 21.95-5.5 43.9 16.5 29.26 44 14.63 22 0 49.5-29.25 38.5-7.32 14.3-36.58 14.3-43.9 0-14.63 11-43.88 5.5-43.88-22z" stroke="#000" stroke-width="4" fill="#fff"/><use xlink:href="#m" transform="matrix(1,0,0,1,740,360) translate(45.05499999999999 49.0875)"/><use xlink:href="#n" transform="matrix(1,0,0,1,740,360) translate(34.60499999999999 70.6875)"/><path d="M600 714.4c11.05 0 20 11.9 20 26.6 0 14.7-8.95 26.6-20 26.6H440c-11.05 0-20-11.9-20-26.6 0-14.7 8.95-26.6 20-26.6z" stroke="#000" stroke-width="2" fill="#fff"/><path d="M600 767.6c-11.05 0-20-11.9-20-26.6 0-14.7 8.95-26.6 20-26.6" stroke="#000" stroke-width="2" fill="none"/><use xlink:href="#o" transform="matrix(1,0,0,1,425.00000000000017,719.3999999999986) translate(54.19999999999999 25.4)"/><use xlink:href="#p" transform="matrix(1,0,0,1,425.00000000000017,719.3999999999986) translate(79.19999999999999 25.4)"/><path d="M680 607h260v42H680z" stroke="#000" fill="#28afb0"/><use xlink:href="#q" transform="matrix(1,0,0,1,684.9999999999997,612) translate(81.725 20.4)"/><path d="M680 866h120v42H680z" stroke="#000" fill="#28afb0"/><use xlink:href="#r" transform="matrix(1,0,0,1,685,871) translate(11.049999999999997 20.4)"/><path d="M820 667h120v42H820z" stroke="#000" fill="#28afb0"/><use xlink:href="#s" transform="matrix(1,0,0,1,824.9999999999932,672) translate(36.05 20.4)"/><path d="M820 766h120v42H820z" stroke="#000" fill="#28afb0"/><use xlink:href="#t" transform="matrix(1,0,0,1,825,771) translate(32.575 20.4)"/><path d="M680 667h120v42H680z" stroke="#000" fill="#28afb0"/><use xlink:href="#u" transform="matrix(1,0,0,1,685,672) translate(29.575 20.4)"/><path d="M679.87 766h120v42h-120z" stroke="#000" fill="#28afb0"/><use xlink:href="#v" transform="matrix(1,0,0,1,684.8749586673355,771) translate(31.575 20.4)"/><path d="M680 547h260v42H680z" stroke="#000" fill="#8b2635"/><use xlink:href="#w" transform="matrix(1,0,0,1,685,552) translate(80.4 20.4)"/><path d="M1000 835.47V717h119.87v118.47z" fill="#eee5ee"/><path d="M1000 825.6v-9.88m0-4.93v-9.9m0-4.92v-9.87m0-4.93v-9.87m0-4.94v-9.87m0-4.95v-9.87m0-4.94v-9.87m0-4.93V717h5m5 0h9.98m5 0h9.98m5 0h10m4.98 0h10m5 0h9.98m5 0h9.98m5 0h10m4.98 0h5v4.94m0 4.93v9.87m0 4.94v9.87m0 4.94v9.86m0 4.94v9.87m0 4.94V796m0 4.93v9.9m0 4.92v9.87m0 4.93v4.94h-5m-5 0h-9.98m-5 0h-10m-4.98 0h-10m-5 0h-9.98m-5 0h-9.98m-5 0h-10m-4.98 0h-10m-5 0H1000v-4.94" stroke="#000" fill="none"/><use xlink:href="#x" transform="matrix(6.123233995736766e-17,-1,1,6.123233995736766e-17,1005.0000000000002,830.466682911258) translate(15.543827160493876 108.45827555555555)"/><path d="M260 1022V901h120v121z" stroke="#000" fill="#ddcecd"/><use xlink:href="#y" transform="matrix(6.123233995736766e-17,-1,1,6.123233995736766e-17,265,1016.9928409561373) translate(41.235185185185216 109.28102755555554)"/><path d="M260 861.5v-121h120v121z" stroke="#000" fill="#ddcecd"/><use xlink:href="#z" transform="matrix(6.123233995736766e-17,-1,1,6.123233995736766e-17,265.0000000000001,856.4928409561376) translate(41.235185185185216 109.28102755555554)"/><path d="M260 701V580h120v121z" stroke="#000" fill="#ddcecd"/><use xlink:href="#A" transform="matrix(6.123233995736766e-17,-1,1,6.123233995736766e-17,265.0000000000001,695.9928409561383) translate(41.235185185185216 109.28102755555554)"/><path d="M419.12 743.74" stroke="#000" stroke-width="2" fill="none"/><path/><path/><path d="M678.5 615.73H520v96.67" stroke="#834187" stroke-width="2" fill="none"/><path d="M679.5 616.73h-1.03v-2h1.03zM521 713.4h-2v-1.03h2z" fill="#834187"/><path d="M600 700" stroke="#000" stroke-width="2" fill="none"/><path d="M320 670h60v31h-60z" stroke="#000" fill="#19647e"/><use xlink:href="#B" transform="matrix(1,0,0,1,325.00000000000216,674.9911888690945) translate(2.549999999999997 15.775)"/><path d="M320 831h60v31h-60z" stroke="#000" fill="#19647e"/><use xlink:href="#B" transform="matrix(1,0,0,1,325.00000000000216,835.9911888690938) translate(2.549999999999997 15.775)"/><path d="M320 991h60v31h-60z" stroke="#000" fill="#19647e"/><use xlink:href="#B" transform="matrix(1,0,0,1,325.0000000000021,995.9911888690938) translate(2.549999999999997 15.775)"/><path d="M287.44 624.13c.05 1.5.25 3.03.6 4.54l8.6-2.84c-.27-1.58-.27-3.18-.04-4.72l-9.16 3.03zM333.54 608.94l-9.15 3c1.16 1.1 2.16 2.36 2.97 3.77l8.6-2.82c-.7-1.4-1.5-2.72-2.43-3.94zM320.48 620.85c.74 2.1 1 4.26.84 6.33l8.98-2.96c-.15-2.05-.58-4.12-1.3-6.16-.32-.88-.68-1.7-1.08-2.53l-8.6 2.83c.46.8.85 1.62 1.16 2.5zM289.28 631.14c-.32-.88-.54-1.77-.68-2.65l-8.6 2.82c.2.87.46 1.75.77 2.62.72 2.04 1.7 3.92 2.9 5.65l8.97-2.97c-1.45-1.55-2.62-3.4-3.36-5.5z" stroke="#000" stroke-opacity="0" fill="#ba141a"/><path d="M325.74 625.67c-.47 6.15-4.67 11.7-11.07 13.82-6.44 2.12-13.3.2-17.6-4.37l-8.97 2.97c6.26 9.03 18.26 13.26 29.47 9.56 11.2-3.68 17.98-14.1 17.18-24.94l-9 2.95zM293 622.27c.82-5.7 4.88-10.77 10.97-12.77 6.04-2 12.5-.4 16.78 3.62l9.17-3.03c-6.4-8.48-18.02-12.35-28.86-8.76-10.88 3.56-17.56 13.47-17.24 23.94l9.17-3z" stroke="#000" stroke-opacity="0" fill="#ba141a"/><path d="M296.44 623.02c.02-.64.06-1.28.16-1.9l-9.16 3c.02.6.08 1.2.15 1.82l8.84-2.92zM334.58 610.46c-.34-.52-.68-1.03-1.04-1.52l-9.16 3.02c.48.44.92.9 1.34 1.4l8.86-2.9zM334.76 625.5c.04-.93.05-1.85-.03-2.78l-8.97 2.96c-.1 1-.27 2-.55 2.97l9.56-3.16zM299.43 637.17c-.85-.6-1.65-1.28-2.36-2.04l-8.97 2.95c.54.8 1.15 1.54 1.8 2.25l9.53-3.16z" stroke="#000" stroke-opacity="0" fill="#7c181c"/><path d="M284.5 624.2l1.96-8.92 7.67-9.06 10-4.96 9.24.04 8 2.7 7.22 5.6 1.57 1.55 3.1-1.12 1.74 2.28-7.4 2.7.07 1.76 1.9 6.88.22 1.1 4.4-1.06-1.3 7.48-4.53 8.03-10.6 7.7-9.45.8-6.42-.76-9.67-5.8-2.94-2.83-.83-.83-4.56 1.44-3.25-7.05 8.15-2.7-.65-5.75z" stroke="#000" stroke-opacity="0" stroke-width="0" fill-opacity="0"/><path d="M287.44 785.13c.05 1.5.25 3.03.6 4.54l8.6-2.84c-.27-1.58-.27-3.18-.04-4.72l-9.16 3.03zM333.54 769.94l-9.15 3c1.16 1.1 2.16 2.36 2.97 3.77l8.6-2.82c-.7-1.4-1.5-2.72-2.43-3.94zM320.48 781.85c.74 2.1 1 4.26.84 6.33l8.98-2.96c-.15-2.05-.58-4.12-1.3-6.16-.32-.88-.68-1.7-1.08-2.53l-8.6 2.83c.46.8.85 1.62 1.16 2.5zM289.28 792.14c-.32-.88-.54-1.77-.68-2.65l-8.6 2.82c.2.87.46 1.75.77 2.62.72 2.04 1.7 3.92 2.9 5.65l8.97-2.97c-1.45-1.55-2.62-3.4-3.36-5.5z" stroke="#000" stroke-opacity="0" fill="#ba141a"/><path d="M325.74 786.67c-.47 6.15-4.67 11.7-11.07 13.82-6.44 2.12-13.3.2-17.6-4.37l-8.97 2.97c6.26 9.03 18.26 13.26 29.47 9.56 11.2-3.68 17.98-14.1 17.18-24.94l-9 2.95zM293 783.27c.82-5.7 4.88-10.77 10.97-12.77 6.04-2 12.5-.4 16.78 3.62l9.17-3.03c-6.4-8.48-18.02-12.35-28.86-8.76-10.88 3.56-17.56 13.47-17.24 23.94l9.17-3z" stroke="#000" stroke-opacity="0" fill="#ba141a"/><path d="M296.44 784.02c.02-.64.06-1.28.16-1.9l-9.16 3c.02.6.08 1.2.15 1.82l8.84-2.92zM334.58 771.46c-.34-.52-.68-1.03-1.04-1.52l-9.16 3.02c.48.44.92.9 1.34 1.4l8.86-2.9zM334.76 786.5c.04-.93.05-1.85-.03-2.78l-8.97 2.96c-.1 1-.27 2-.55 2.97l9.56-3.16zM299.43 798.17c-.85-.6-1.65-1.28-2.36-2.04l-8.97 2.95c.54.8 1.15 1.54 1.8 2.25l9.53-3.16z" stroke="#000" stroke-opacity="0" fill="#7c181c"/><path d="M284.5 785.2l1.96-8.92 7.67-9.06 10-4.96 9.24.04 8 2.7 7.22 5.6 1.57 1.55 3.1-1.12 1.74 2.28-7.4 2.7.07 1.76 1.9 6.88.22 1.1 4.4-1.06-1.3 7.48-4.53 8.03-10.6 7.7-9.45.8-6.42-.76-9.67-5.8-2.94-2.83-.83-.83-4.56 1.44-3.25-7.05 8.15-2.7-.65-5.75z" stroke="#000" stroke-opacity="0" stroke-width="0" fill-opacity="0"/><path d="M287.44 945.13c.05 1.5.25 3.03.6 4.54l8.6-2.84c-.27-1.58-.27-3.18-.04-4.72l-9.16 3.03zM333.54 929.94l-9.15 3c1.16 1.1 2.16 2.36 2.97 3.77l8.6-2.82c-.7-1.4-1.5-2.72-2.43-3.94zM320.48 941.85c.74 2.1 1 4.26.84 6.33l8.98-2.96c-.15-2.05-.58-4.12-1.3-6.16-.32-.88-.68-1.7-1.08-2.53l-8.6 2.83c.46.8.85 1.62 1.16 2.5zM289.28 952.14c-.32-.88-.54-1.77-.68-2.65l-8.6 2.82c.2.87.46 1.75.77 2.62.72 2.04 1.7 3.92 2.9 5.65l8.97-2.97c-1.45-1.55-2.62-3.4-3.36-5.5z" stroke="#000" stroke-opacity="0" fill="#ba141a"/><path d="M325.74 946.67c-.47 6.15-4.67 11.7-11.07 13.82-6.44 2.12-13.3.2-17.6-4.37l-8.97 2.97c6.26 9.03 18.26 13.26 29.47 9.56 11.2-3.68 17.98-14.1 17.18-24.94l-9 2.95zM293 943.27c.82-5.7 4.88-10.77 10.97-12.77 6.04-2 12.5-.4 16.78 3.62l9.17-3.03c-6.4-8.48-18.02-12.35-28.86-8.76-10.88 3.56-17.56 13.47-17.24 23.94l9.17-3z" stroke="#000" stroke-opacity="0" fill="#ba141a"/><path d="M296.44 944.02c.02-.64.06-1.28.16-1.9l-9.16 3c.02.6.08 1.2.15 1.82l8.84-2.92zM334.58 931.46c-.34-.52-.68-1.03-1.04-1.52l-9.16 3.02c.48.44.92.9 1.34 1.4l8.86-2.9zM334.76 946.5c.04-.93.05-1.85-.03-2.78l-8.97 2.96c-.1 1-.27 2-.55 2.97l9.56-3.16zM299.43 958.17c-.85-.6-1.65-1.28-2.36-2.04l-8.97 2.95c.54.8 1.15 1.54 1.8 2.25l9.53-3.16z" stroke="#000" stroke-opacity="0" fill="#7c181c"/><path d="M284.5 945.2l1.96-8.92 7.67-9.06 10-4.96 9.24.04 8 2.7 7.22 5.6 1.57 1.55 3.1-1.12 1.74 2.28-7.4 2.7.07 1.76 1.9 6.88.22 1.1 4.4-1.06-1.3 7.48-4.53 8.03-10.6 7.7-9.45.8-6.42-.76-9.67-5.8-2.94-2.83-.83-.83-4.56 1.44-3.25-7.05 8.15-2.7-.65-5.75z" stroke="#000" stroke-opacity="0" stroke-width="0" fill-opacity="0"/><path d="M1027.44 760.13c.05 1.5.25 3.03.6 4.54l8.6-2.84c-.27-1.58-.27-3.18-.04-4.72l-9.16 3.03zM1073.54 744.94l-9.15 3c1.16 1.1 2.16 2.36 2.97 3.77l8.6-2.82c-.7-1.4-1.5-2.72-2.43-3.94zM1060.48 756.85c.74 2.1 1 4.26.84 6.33l8.98-2.96c-.15-2.05-.58-4.12-1.3-6.16-.32-.88-.68-1.7-1.08-2.53l-8.6 2.83c.46.8.85 1.62 1.16 2.5zM1029.28 767.14c-.32-.88-.54-1.77-.68-2.65l-8.6 2.82c.2.87.46 1.75.77 2.62.72 2.04 1.7 3.92 2.9 5.65l8.97-2.97c-1.45-1.55-2.62-3.4-3.36-5.5z" stroke="#000" stroke-opacity="0" fill="#ba141a"/><path d="M1065.74 761.67c-.47 6.15-4.67 11.7-11.07 13.82-6.44 2.12-13.3.2-17.6-4.37l-8.97 2.97c6.26 9.03 18.26 13.26 29.47 9.56 11.2-3.68 17.98-14.1 17.18-24.94l-9 2.95zM1033 758.27c.82-5.7 4.88-10.77 10.97-12.77 6.04-2 12.5-.4 16.78 3.62l9.17-3.03c-6.4-8.48-18.02-12.35-28.86-8.76-10.88 3.56-17.56 13.47-17.24 23.94l9.17-3z" stroke="#000" stroke-opacity="0" fill="#ba141a"/><path d="M1036.44 759.02c.02-.64.06-1.28.16-1.9l-9.16 3c.02.6.08 1.2.15 1.82l8.84-2.92zM1074.58 746.46c-.34-.52-.68-1.03-1.04-1.52l-9.16 3.02c.48.44.92.9 1.34 1.4l8.86-2.9zM1074.76 761.5c.04-.93.05-1.85-.03-2.78l-8.97 2.96c-.1 1-.27 2-.55 2.97l9.56-3.16zM1039.43 773.17c-.85-.6-1.65-1.28-2.36-2.04l-8.97 2.95c.54.8 1.15 1.54 1.8 2.25l9.53-3.16z" stroke="#000" stroke-opacity="0" fill="#7c181c"/><path d="M1024.5 760.2l1.96-8.92 7.67-9.06 10-4.96 9.24.04 8 2.7 7.22 5.6 1.57 1.55 3.1-1.12 1.74 2.28-7.4 2.7.07 1.76 1.9 6.88.22 1.1 4.4-1.06-1.3 7.48-4.53 8.03-10.6 7.7-9.45.8-6.42-.76-9.67-5.8-2.94-2.83-.83-.83-4.56 1.44-3.25-7.05 8.15-2.7-.65-5.75z" stroke="#000" stroke-opacity="0" stroke-width="0" fill-opacity="0"/><path d="M820 866h120v42H820z" stroke="#000" fill="#28afb0"/><use xlink:href="#C" transform="matrix(1,0,0,1,825,871) translate(7.599999999999994 20.4)"/><path d="M470 741c0 11.05-8.95 20-20 20s-20-8.95-20-20 8.95-20 20-20 20 8.95 20 20zm-34.14-14.14l28.28 28.28m-28.28 0l28.28-28.28" stroke="#000" stroke-width="2" fill="#28afb0"/><path d="M640 1049h60v31h-60z" stroke="#000" fill="#19647e"/><use xlink:href="#B" transform="matrix(1,0,0,1,645,1053.9983479129555) translate(2.549999999999997 15.775)"/><path d="M811.52 468.57l-.12 8.55m-.12 8.55l-.23 17.1m-.12 8.54l-.24 17.1m-.13 8.55l-.1 8.55" stroke="#19967d" stroke-width="2" fill="none"/><path d="M812.38 468.1l.14.07v.44h-2l.02-1.64zM811.46 545.5l-.02 1h-2l.02-1.04z" fill="#19967d"/><path d="M381.5 640.5h97.85v71.9" stroke="#834187" stroke-width="2" fill="none"/><path d="M381.53 641.5h-1.03v-2h1.03zM480.35 713.4h-2v-1.03h2z" fill="#834187"/><path d="M381.5 685.5h77.72v26.9" stroke="#834187" stroke-width="2" fill="none"/><path d="M381.53 686.5h-1.03v-2h1.03zM460.22 713.4h-2v-1.03h2z" fill="#834187"/><path d="M381.5 801h76.95v-31.4" stroke="#834187" stroke-width="2" fill="none"/><path d="M381.53 802h-1.03v-2h1.03zM459.45 769.63h-2v-1.03h2z" fill="#834187"/><path d="M381.5 846.5h99.4v-76.9" stroke="#834187" stroke-width="2" fill="none"/><path d="M381.53 847.5h-1.03v-2h1.03zM481.9 769.63h-2v-1.03h2z" fill="#834187"/><path d="M381.5 961.5h120.3V769.6" stroke="#834187" stroke-width="2" fill="none"/><path d="M381.53 962.5h-1.03v-2h1.03zM502.8 769.63h-2v-1.03h2z" fill="#834187"/><path d="M381.5 1006.5H520V769.6" stroke="#834187" stroke-width="2" fill="none"/><path d="M381.53 1007.5h-1.03v-2h1.03zM521 769.63h-2v-1.03h2z" fill="#834187"/><path d="M638.5 1064.5h-58.38V769.6" stroke="#834187" stroke-width="2" fill="none"/><path d="M639.5 1065.5h-1.03v-2h1.03zM581.12 769.63h-2v-1.03h2z" fill="#834187"/><path d="M820 926h120v42H820z" stroke="#000" fill="#28afb0"/><use xlink:href="#D" transform="matrix(1,0,0,1,825.0000000000018,930.9928409561388) translate(37.05 20.4)"/><path d="M680 925.5h120v42H680z" stroke="#000" fill="#28afb0"/><use xlink:href="#E" transform="matrix(1,0,0,1,685,930.4920149126164) translate(15.074999999999996 20.4)"/><path d="M1121 780h29V628H941.5M1121.03 780H1120" stroke="#834187" stroke-width="2" fill="none"/><path d="M941.53 629h-1.03v-2h1.03z" fill="#834187"/><path d="M680 980h120v42H680z" stroke="#000" fill="#28afb0"/><use xlink:href="#F" transform="matrix(1,0,0,1,685.0000000000018,985) translate(31.224999999999998 20.4)"/><path d="M180 634c0 3.3-26.86 6-60 6s-60-2.7-60-6v-48c0-3.3 26.86-6 60-6s60 2.7 60 6z" stroke="#000" stroke-width="2" fill="#28afb0"/><path d="M180 586c0 3.3-26.86 6-60 6s-60-2.7-60-6" stroke="#000" stroke-width="2" fill="none"/><use xlink:href="#G" transform="matrix(1,0,0,1,65,596.9999999999999) translate(3.5749999999999957 21.525)"/><use xlink:href="#H" transform="matrix(1,0,0,1,65,596.9999999999999) translate(71.525 21.525)"/><path d="M180 711c0 3.3-26.86 6-60 6s-60-2.7-60-6v-48c0-3.3 26.86-6 60-6s60 2.7 60 6z" stroke="#000" stroke-width="2" fill="#28afb0"/><path d="M180 663c0 3.3-26.86 6-60 6s-60-2.7-60-6" stroke="#000" stroke-width="2" fill="none"/><use xlink:href="#I" transform="matrix(1,0,0,1,65,674) translate(1.0749999999999957 21.525)"/><use xlink:href="#J" transform="matrix(1,0,0,1,65,674) translate(6.074999999999996 21.525)"/><use xlink:href="#H" transform="matrix(1,0,0,1,65,674) translate(74.025 21.525)"/><path d="M180 794c0 3.3-26.86 6-60 6s-60-2.7-60-6v-48c0-3.3 26.86-6 60-6s60 2.7 60 6z" stroke="#000" stroke-width="2" fill="#28afb0"/><path d="M180 746c0 3.3-26.86 6-60 6s-60-2.7-60-6" stroke="#000" stroke-width="2" fill="none"/><use xlink:href="#G" transform="matrix(1,0,0,1,65,756.9999999999999) translate(3.5749999999999957 21.525)"/><use xlink:href="#H" transform="matrix(1,0,0,1,65,756.9999999999999) translate(71.525 21.525)"/><path d="M180 874c0 3.3-26.86 6-60 6s-60-2.7-60-6v-48c0-3.3 26.86-6 60-6s60 2.7 60 6z" stroke="#000" stroke-width="2" fill="#28afb0"/><path d="M180 826c0 3.3-26.86 6-60 6s-60-2.7-60-6" stroke="#000" stroke-width="2" fill="none"/><use xlink:href="#G" transform="matrix(1,0,0,1,65,836.9999999999999) translate(3.5749999999999957 21.525)"/><use xlink:href="#H" transform="matrix(1,0,0,1,65,836.9999999999999) translate(71.525 21.525)"/><path d="M180 954c0 3.3-26.86 6-60 6s-60-2.7-60-6v-48c0-3.3 26.86-6 60-6s60 2.7 60 6z" stroke="#000" stroke-width="2" fill="#28afb0"/><path d="M180 906c0 3.3-26.86 6-60 6s-60-2.7-60-6" stroke="#000" stroke-width="2" fill="none"/><use xlink:href="#G" transform="matrix(1,0,0,1,65,916.9999999999999) translate(3.5749999999999957 21.525)"/><use xlink:href="#H" transform="matrix(1,0,0,1,65,916.9999999999999) translate(71.525 21.525)"/><path d="M180 1034c0 3.3-26.86 6-60 6s-60-2.7-60-6v-48c0-3.3 26.86-6 60-6s60 2.7 60 6z" stroke="#000" stroke-width="2" fill="#28afb0"/><path d="M180 986c0 3.3-26.86 6-60 6s-60-2.7-60-6" stroke="#000" stroke-width="2" fill="none"/><use xlink:href="#G" transform="matrix(1,0,0,1,65,996.9999999999999) translate(3.5749999999999957 21.525)"/><use xlink:href="#H" transform="matrix(1,0,0,1,65,996.9999999999999) translate(71.525 21.525)"/><path d="M182 610h38.25v30.5h38.25" stroke="#000" stroke-width="2" fill="none"/><path d="M182.02 611H181v-2h1.02zM259.5 641.5h-1.03v-2h1.03z"/><path d="M182 687h38.25v-46.5h38.25" stroke="#000" stroke-width="2" fill="none"/><path d="M182.02 688H181v-2h1.02zM259.5 641.5h-1.03v-2h1.03z"/><path d="M182 770h38.25v31h38.25" stroke="#000" stroke-width="2" fill="none"/><path d="M182.02 771H181v-2h1.02zM259.5 802h-1.03v-2h1.03z"/><path d="M182 850h38.25v-49h38.25" stroke="#000" stroke-width="2" fill="none"/><path d="M182.02 851H181v-2h1.02zM259.5 802h-1.03v-2h1.03z"/><path d="M182 930h38.25v31.5h38.25" stroke="#000" stroke-width="2" fill="none"/><path d="M182.02 931H181v-2h1.02zM259.5 962.5h-1.03v-2h1.03z"/><path d="M182 1010h38.25v-48.5h38.25" stroke="#000" stroke-width="2" fill="none"/><path d="M182.02 1011H181v-2h1.02zM259.5 962.5h-1.03v-2h1.03z"/><defs><path d="M140-251c81 0 123 46 123 126C263-46 219 4 140 4 59 4 17-45 17-125s42-126 123-126zm0 227c63 0 89-41 89-101s-29-99-89-99c-61 0-89 39-89 99S79-25 140-24" id="K"/><path d="M115-194c55 1 70 41 70 98S169 2 115 4C84 4 66-9 55-30l1 105H24l-1-265h31l2 30c10-21 28-34 59-34zm-8 174c40 0 45-34 45-75s-6-73-45-74c-42 0-51 32-51 76 0 43 10 73 51 73" id="L"/><path d="M100-194c63 0 86 42 84 106H49c0 40 14 67 53 68 26 1 43-12 49-29l28 8c-11 28-37 45-77 45C44 4 14-33 15-96c1-61 26-98 85-98zm52 81c6-60-76-77-97-28-3 7-6 17-6 28h103" id="M"/><path d="M117-194c89-4 53 116 60 194h-32v-121c0-31-8-49-39-48C34-167 62-67 57 0H25l-1-190h30c1 10-1 24 2 32 11-22 29-35 61-36" id="N"/><path d="M185-189c-5-48-123-54-124 2 14 75 158 14 163 119 3 78-121 87-175 55-17-10-28-26-33-46l33-7c5 56 141 63 141-1 0-78-155-14-162-118-5-82 145-84 179-34 5 7 8 16 11 25" id="O"/><path d="M106-169C34-169 62-67 57 0H25v-261h32l-1 103c12-21 28-36 61-36 89 0 53 116 60 194h-32v-121c2-32-8-49-39-48" id="P"/><path d="M24-231v-30h32v30H24zM24 0v-190h32V0H24" id="Q"/><path d="M101-234c-31-9-42 10-38 44h38v23H63V0H32v-167H5v-23h27c-7-52 17-82 69-68v24" id="R"/><path d="M59-47c-2 24 18 29 38 22v24C64 9 27 4 27-40v-127H5v-23h24l9-43h21v43h35v23H59v120" id="S"/><g id="b"><use transform="matrix(0.0685185185185185,0,0,0.0685185185185185,0,0)" xlink:href="#K"/><use transform="matrix(0.0685185185185185,0,0,0.0685185185185185,19.185185185185183,0)" xlink:href="#L"/><use transform="matrix(0.0685185185185185,0,0,0.0685185185185185,32.888888888888886,0)" xlink:href="#M"/><use transform="matrix(0.0685185185185185,0,0,0.0685185185185185,46.59259259259258,0)" xlink:href="#N"/><use transform="matrix(0.0685185185185185,0,0,0.0685185185185185,60.29629629629629,0)" xlink:href="#O"/><use transform="matrix(0.0685185185185185,0,0,0.0685185185185185,76.74074074074073,0)" xlink:href="#P"/><use transform="matrix(0.0685185185185185,0,0,0.0685185185185185,90.44444444444443,0)" xlink:href="#Q"/><use transform="matrix(0.0685185185185185,0,0,0.0685185185185185,95.8574074074074,0)" xlink:href="#R"/><use transform="matrix(0.0685185185185185,0,0,0.0685185185185185,102.70925925925924,0)" xlink:href="#S"/></g><path d="M30-248c118-7 216 8 213 122C240-48 200 0 122 0H30v-248zM63-27c89 8 146-16 146-99s-60-101-146-95v194" id="T"/><path d="M141-36C126-15 110 5 73 4 37 3 15-17 15-53c-1-64 63-63 125-63 3-35-9-54-41-54-24 1-41 7-42 31l-33-3c5-37 33-52 76-52 45 0 72 20 72 64v82c-1 20 7 32 28 27v20c-31 9-61-2-59-35zM48-53c0 20 12 33 32 33 41-3 63-29 60-74-43 2-92-5-92 41" id="U"/><g id="c"><use transform="matrix(0.0685185185185185,0,0,0.0685185185185185,0,0)" xlink:href="#T"/><use transform="matrix(0.0685185185185185,0,0,0.0685185185185185,17.746296296296293,0)" xlink:href="#U"/><use transform="matrix(0.0685185185185185,0,0,0.0685185185185185,31.449999999999996,0)" xlink:href="#S"/><use transform="matrix(0.0685185185185185,0,0,0.0685185185185185,38.30185185185184,0)" xlink:href="#U"/></g><path d="M63-220v92h138v28H63V0H30v-248h175v28H63" id="V"/><path d="M100-194c62-1 85 37 85 99 1 63-27 99-86 99S16-35 15-95c0-66 28-99 85-99zM99-20c44 1 53-31 53-75 0-43-8-75-51-75s-53 32-53 75 10 74 51 75" id="W"/><path d="M84 4C-5 8 30-112 23-190h32v120c0 31 7 50 39 49 72-2 45-101 50-169h31l1 190h-30c-1-10 1-25-2-33-11 22-28 36-60 37" id="X"/><path d="M85-194c31 0 48 13 60 33l-1-100h32l1 261h-30c-2-10 0-23-3-31C134-8 116 4 85 4 32 4 16-35 15-94c0-66 23-100 70-100zm9 24c-40 0-46 34-46 75 0 40 6 74 45 74 42 0 51-32 51-76 0-42-9-74-50-73" id="Y"/><g id="d"><use transform="matrix(0.0685185185185185,0,0,0.0685185185185185,0,0)" xlink:href="#V"/><use transform="matrix(0.0685185185185185,0,0,0.0685185185185185,15.005555555555553,0)" xlink:href="#W"/><use transform="matrix(0.0685185185185185,0,0,0.0685185185185185,28.709259259259255,0)" xlink:href="#X"/><use transform="matrix(0.0685185185185185,0,0,0.0685185185185185,42.41296296296296,0)" xlink:href="#N"/><use transform="matrix(0.0685185185185185,0,0,0.0685185185185185,56.11666666666666,0)" xlink:href="#Y"/><use transform="matrix(0.0685185185185185,0,0,0.0685185185185185,69.82037037037036,0)" xlink:href="#U"/><use transform="matrix(0.0685185185185185,0,0,0.0685185185185185,83.52407407407405,0)" xlink:href="#S"/><use transform="matrix(0.0685185185185185,0,0,0.0685185185185185,90.3759259259259,0)" xlink:href="#Q"/><use transform="matrix(0.0685185185185185,0,0,0.0685185185185185,95.78888888888886,0)" xlink:href="#W"/><use transform="matrix(0.0685185185185185,0,0,0.0685185185185185,109.49259259259256,0)" xlink:href="#N"/></g><path d="M212-179c-10-28-35-45-73-45-59 0-87 40-87 99 0 60 29 101 89 101 43 0 62-24 78-52l27 14C228-24 195 4 139 4 59 4 22-46 18-125c-6-104 99-153 187-111 19 9 31 26 39 46" id="Z"/><path d="M114-163C36-179 61-72 57 0H25l-1-190h30c1 12-1 29 2 39 6-27 23-49 58-41v29" id="aa"/><path d="M24 0v-261h32V0H24" id="ab"/><g id="e"><use transform="matrix(0.0685185185185185,0,0,0.0685185185185185,0,0)" xlink:href="#Z"/><use transform="matrix(0.0685185185185185,0,0,0.0685185185185185,17.746296296296293,0)" xlink:href="#W"/><use transform="matrix(0.0685185185185185,0,0,0.0685185185185185,31.449999999999996,0)" xlink:href="#N"/><use transform="matrix(0.0685185185185185,0,0,0.0685185185185185,45.1537037037037,0)" xlink:href="#S"/><use transform="matrix(0.0685185185185185,0,0,0.0685185185185185,52.005555555555546,0)" xlink:href="#aa"/><use transform="matrix(0.0685185185185185,0,0,0.0685185185185185,60.159259259259244,0)" xlink:href="#W"/><use transform="matrix(0.0685185185185185,0,0,0.0685185185185185,73.86296296296294,0)" xlink:href="#ab"/></g><path d="M30-248c87 1 191-15 191 75 0 78-77 80-158 76V0H30v-248zm33 125c57 0 124 11 124-50 0-59-68-47-124-48v98" id="ac"/><g id="f"><use transform="matrix(0.0685185185185185,0,0,0.0685185185185185,0,0)" xlink:href="#ac"/><use transform="matrix(0.0685185185185185,0,0,0.0685185185185185,16.444444444444443,0)" xlink:href="#ab"/><use transform="matrix(0.0685185185185185,0,0,0.0685185185185185,21.857407407407404,0)" xlink:href="#U"/><use transform="matrix(0.0685185185185185,0,0,0.0685185185185185,35.5611111111111,0)" xlink:href="#N"/><use transform="matrix(0.0685185185185185,0,0,0.0685185185185185,49.264814814814805,0)" xlink:href="#M"/></g><path d="M115-194c53 0 69 39 70 98 0 66-23 100-70 100C84 3 66-7 56-30L54 0H23l1-261h32v101c10-23 28-34 59-34zm-8 174c40 0 45-34 45-75 0-40-5-75-45-74-42 0-51 32-51 76 0 43 10 73 51 73" id="ad"/><path d="M135-143c-3-34-86-38-87 0 15 53 115 12 119 90S17 21 10-45l28-5c4 36 97 45 98 0-10-56-113-15-118-90-4-57 82-63 122-42 12 7 21 19 24 35" id="ae"/><g id="g"><use transform="matrix(0.06234567901234565,0,0,0.06234567901234565,0,0)" xlink:href="#ad"/><use transform="matrix(0.06234567901234565,0,0,0.06234567901234565,12.46913580246913,0)" xlink:href="#U"/><use transform="matrix(0.06234567901234565,0,0,0.06234567901234565,24.93827160493826,0)" xlink:href="#ae"/><use transform="matrix(0.06234567901234565,0,0,0.06234567901234565,36.16049382716048,0)" xlink:href="#S"/><use transform="matrix(0.06234567901234565,0,0,0.06234567901234565,42.39506172839504,0)" xlink:href="#Q"/><use transform="matrix(0.06234567901234565,0,0,0.06234567901234565,47.32037037037035,0)" xlink:href="#W"/><use transform="matrix(0.06234567901234565,0,0,0.06234567901234565,59.78950617283948,0)" xlink:href="#N"/></g><path d="M197 0v-115H63V0H30v-248h33v105h134v-105h34V0h-34" id="af"/><path d="M137-103V0h-34v-103L8-248h37l75 118 75-118h37" id="ag"/><path d="M30 0v-248h187v28H63v79h144v27H63v87h162V0H30" id="ah"/><path d="M233-177c-1 41-23 64-60 70L243 0h-38l-65-103H63V0H30v-248c88 3 205-21 203 71zM63-129c60-2 137 13 137-47 0-61-80-42-137-45v92" id="ai"/><path d="M137 0h-34L2-248h35l83 218 83-218h36" id="aj"/><path d="M33 0v-248h34V0H33" id="ak"/><g id="h"><use transform="matrix(0.05,0,0,0.05,0,0)" xlink:href="#af"/><use transform="matrix(0.05,0,0,0.05,12.950000000000001,0)" xlink:href="#ag"/><use transform="matrix(0.05,0,0,0.05,24.950000000000003,0)" xlink:href="#ac"/><use transform="matrix(0.05,0,0,0.05,36.95,0)" xlink:href="#ah"/><use transform="matrix(0.05,0,0,0.05,48.95,0)" xlink:href="#ai"/><use transform="matrix(0.05,0,0,0.05,61.550000000000004,0)" xlink:href="#aj"/><use transform="matrix(0.05,0,0,0.05,73.55000000000001,0)" xlink:href="#ak"/><use transform="matrix(0.05,0,0,0.05,78.55000000000001,0)" xlink:href="#O"/><use transform="matrix(0.05,0,0,0.05,90.55000000000001,0)" xlink:href="#K"/><use transform="matrix(0.05,0,0,0.05,104.55000000000001,0)" xlink:href="#ai"/></g><path d="M190 0L58-211 59 0H30v-248h39L202-35l-2-213h31V0h-41" id="al"/><path d="M205 0l-28-72H64L36 0H1l101-248h38L239 0h-34zm-38-99l-47-123c-12 45-31 82-46 123h93" id="am"/><path d="M127-220V0H93v-220H8v-28h204v28h-85" id="an"/><path d="M232-93c-1 65-40 97-104 97C67 4 28-28 28-90v-158h33c8 89-33 224 67 224 102 0 64-133 71-224h33v155" id="ao"/><g id="i"><use transform="matrix(0.05,0,0,0.05,0,0)" xlink:href="#ak"/><use transform="matrix(0.05,0,0,0.05,5,0)" xlink:href="#al"/><use transform="matrix(0.05,0,0,0.05,17.950000000000003,0)" xlink:href="#V"/><use transform="matrix(0.05,0,0,0.05,28.900000000000006,0)" xlink:href="#ai"/><use transform="matrix(0.05,0,0,0.05,41.85000000000001,0)" xlink:href="#am"/><use transform="matrix(0.05,0,0,0.05,53.85,0)" xlink:href="#O"/><use transform="matrix(0.05,0,0,0.05,65.85000000000001,0)" xlink:href="#an"/><use transform="matrix(0.05,0,0,0.05,76.80000000000001,0)" xlink:href="#ai"/><use transform="matrix(0.05,0,0,0.05,89.75000000000001,0)" xlink:href="#ao"/><use transform="matrix(0.05,0,0,0.05,102.7,0)" xlink:href="#Z"/><use transform="matrix(0.05,0,0,0.05,115.65000000000003,0)" xlink:href="#an"/><use transform="matrix(0.05,0,0,0.05,126.60000000000002,0)" xlink:href="#ao"/><use transform="matrix(0.05,0,0,0.05,139.55,0)" xlink:href="#ai"/><use transform="matrix(0.05,0,0,0.05,152.5,0)" xlink:href="#ah"/></g><g id="j"><use transform="matrix(0.05,0,0,0.05,0,0)" xlink:href="#ai"/><use transform="matrix(0.05,0,0,0.05,12.950000000000001,0)" xlink:href="#K"/><use transform="matrix(0.05,0,0,0.05,26.950000000000003,0)" xlink:href="#ao"/><use transform="matrix(0.05,0,0,0.05,39.900000000000006,0)" xlink:href="#an"/><use transform="matrix(0.05,0,0,0.05,50.85000000000001,0)" xlink:href="#ah"/><use transform="matrix(0.05,0,0,0.05,62.85,0)" xlink:href="#ai"/></g><g id="k"><use transform="matrix(0.05,0,0,0.05,0,0)" xlink:href="#Z"/><use transform="matrix(0.05,0,0,0.05,12.950000000000001,0)" xlink:href="#K"/><use transform="matrix(0.05,0,0,0.05,26.950000000000003,0)" xlink:href="#al"/><use transform="matrix(0.05,0,0,0.05,39.900000000000006,0)" xlink:href="#an"/><use transform="matrix(0.05,0,0,0.05,50.85000000000001,0)" xlink:href="#ah"/><use transform="matrix(0.05,0,0,0.05,62.85,0)" xlink:href="#al"/><use transform="matrix(0.05,0,0,0.05,75.80000000000001,0)" xlink:href="#an"/></g><g id="l"><use transform="matrix(0.05,0,0,0.05,0,0)" xlink:href="#O"/><use transform="matrix(0.05,0,0,0.05,12,0)" xlink:href="#K"/><use transform="matrix(0.05,0,0,0.05,26,0)" xlink:href="#ao"/><use transform="matrix(0.05,0,0,0.05,38.95,0)" xlink:href="#ai"/><use transform="matrix(0.05,0,0,0.05,51.900000000000006,0)" xlink:href="#Z"/><use transform="matrix(0.05,0,0,0.05,64.85000000000001,0)" xlink:href="#ah"/><use transform="matrix(0.05,0,0,0.05,76.85000000000001,0)" xlink:href="#O"/></g><path d="M160-131c35 5 61 23 61 61C221 17 115-2 30 0v-248c76 3 177-17 177 60 0 33-19 50-47 57zm-97-11c50-1 110 9 110-42 0-47-63-36-110-37v79zm0 115c55-2 124 14 124-45 0-56-70-42-124-44v89" id="ap"/><path d="M30 0v-248h33v221h125V0H30" id="aq"/><g id="m"><use transform="matrix(0.05,0,0,0.05,0,0)" xlink:href="#ac"/><use transform="matrix(0.05,0,0,0.05,12,0)" xlink:href="#ao"/><use transform="matrix(0.05,0,0,0.05,24.950000000000003,0)" xlink:href="#ap"/><use transform="matrix(0.05,0,0,0.05,36.95,0)" xlink:href="#aq"/><use transform="matrix(0.05,0,0,0.05,46.95,0)" xlink:href="#ak"/><use transform="matrix(0.05,0,0,0.05,51.95,0)" xlink:href="#Z"/></g><path d="M266 0h-40l-56-210L115 0H75L2-248h35L96-30l15-64 43-154h32l59 218 59-218h35" id="ar"/><path d="M194 0L95-120 63-95V0H30v-248h33v124l119-124h40L117-140 236 0h-42" id="as"/><g id="n"><use transform="matrix(0.05,0,0,0.05,0,0)" xlink:href="#al"/><use transform="matrix(0.05,0,0,0.05,12.950000000000001,0)" xlink:href="#ah"/><use transform="matrix(0.05,0,0,0.05,24.950000000000003,0)" xlink:href="#an"/><use transform="matrix(0.05,0,0,0.05,35.900000000000006,0)" xlink:href="#ar"/><use transform="matrix(0.05,0,0,0.05,52.85,0)" xlink:href="#K"/><use transform="matrix(0.05,0,0,0.05,66.85000000000001,0)" xlink:href="#ai"/><use transform="matrix(0.05,0,0,0.05,79.80000000000001,0)" xlink:href="#as"/></g><path d="M101-251c82-7 93 87 43 132L82-64C71-53 59-42 53-27h129V0H18c2-99 128-94 128-182 0-28-16-43-45-43s-46 15-49 41l-32-3c6-41 34-60 81-64" id="at"/><g id="o"><use transform="matrix(0.05,0,0,0.05,0,0)" xlink:href="#aq"/><use transform="matrix(0.05,0,0,0.05,10,0)" xlink:href="#at"/></g><g id="p"><use transform="matrix(0.05,0,0,0.05,0,0)" xlink:href="#O"/><use transform="matrix(0.05,0,0,0.05,12,0)" xlink:href="#ar"/><use transform="matrix(0.05,0,0,0.05,28.950000000000003,0)" xlink:href="#ak"/><use transform="matrix(0.05,0,0,0.05,33.95,0)" xlink:href="#an"/><use transform="matrix(0.05,0,0,0.05,44.900000000000006,0)" xlink:href="#Z"/><use transform="matrix(0.05,0,0,0.05,57.85,0)" xlink:href="#af"/></g><path d="M143 4C61 4 22-44 18-125c-5-107 100-154 193-111 17 8 29 25 37 43l-32 9c-13-25-37-40-76-40-61 0-88 39-88 99 0 61 29 100 91 101 35 0 62-11 79-27v-45h-74v-28h105v86C228-13 192 4 143 4" id="au"/><g id="q"><use transform="matrix(0.05,0,0,0.05,0,0)" xlink:href="#au"/><use transform="matrix(0.05,0,0,0.05,14,0)" xlink:href="#am"/><use transform="matrix(0.05,0,0,0.05,24.65,0)" xlink:href="#an"/><use transform="matrix(0.05,0,0,0.05,35.6,0)" xlink:href="#ah"/><use transform="matrix(0.05,0,0,0.05,47.6,0)" xlink:href="#ar"/><use transform="matrix(0.05,0,0,0.05,63.900000000000006,0)" xlink:href="#am"/><use transform="matrix(0.05,0,0,0.05,74.55000000000001,0)" xlink:href="#ag"/></g><path d="M195 0l-74-108L45 0H8l94-129-87-119h37l69 98 67-98h37l-84 118L233 0h-38" id="av"/><g id="r"><use transform="matrix(0.05,0,0,0.05,0,0)" xlink:href="#af"/><use transform="matrix(0.05,0,0,0.05,12.950000000000001,0)" xlink:href="#am"/><use transform="matrix(0.05,0,0,0.05,24.950000000000003,0)" xlink:href="#ac"/><use transform="matrix(0.05,0,0,0.05,36.95,0)" xlink:href="#ai"/><use transform="matrix(0.05,0,0,0.05,49.900000000000006,0)" xlink:href="#K"/><use transform="matrix(0.05,0,0,0.05,63.900000000000006,0)" xlink:href="#av"/><use transform="matrix(0.05,0,0,0.05,75.9,0)" xlink:href="#ag"/></g><g id="s"><use transform="matrix(0.05,0,0,0.05,0,0)" xlink:href="#T"/><use transform="matrix(0.05,0,0,0.05,12.950000000000001,0)" xlink:href="#al"/><use transform="matrix(0.05,0,0,0.05,25.900000000000002,0)" xlink:href="#O"/></g><g id="t"><use transform="matrix(0.05,0,0,0.05,0,0)" xlink:href="#an"/><use transform="matrix(0.05,0,0,0.05,10.950000000000001,0)" xlink:href="#V"/><use transform="matrix(0.05,0,0,0.05,21.900000000000002,0)" xlink:href="#an"/><use transform="matrix(0.05,0,0,0.05,32.85,0)" xlink:href="#ac"/></g><g id="u"><use transform="matrix(0.05,0,0,0.05,0,0)" xlink:href="#T"/><use transform="matrix(0.05,0,0,0.05,12.950000000000001,0)" xlink:href="#af"/><use transform="matrix(0.05,0,0,0.05,25.900000000000002,0)" xlink:href="#Z"/><use transform="matrix(0.05,0,0,0.05,38.85,0)" xlink:href="#ac"/></g><g id="v"><use transform="matrix(0.05,0,0,0.05,0,0)" xlink:href="#af"/><use transform="matrix(0.05,0,0,0.05,12.950000000000001,0)" xlink:href="#an"/><use transform="matrix(0.05,0,0,0.05,23.900000000000002,0)" xlink:href="#an"/><use transform="matrix(0.05,0,0,0.05,34.85,0)" xlink:href="#ac"/></g><path fill="#fff" d="M63-220v92h138v28H63V0H30v-248h175v28H63" id="aw"/><path fill="#fff" d="M33 0v-248h34V0H33" id="ax"/><path fill="#fff" d="M233-177c-1 41-23 64-60 70L243 0h-38l-65-103H63V0H30v-248c88 3 205-21 203 71zM63-129c60-2 137 13 137-47 0-61-80-42-137-45v92" id="ay"/><path fill="#fff" d="M30 0v-248h187v28H63v79h144v27H63v87h162V0H30" id="az"/><path fill="#fff" d="M266 0h-40l-56-210L115 0H75L2-248h35L96-30l15-64 43-154h32l59 218 59-218h35" id="aA"/><path fill="#fff" d="M205 0l-28-72H64L36 0H1l101-248h38L239 0h-34zm-38-99l-47-123c-12 45-31 82-46 123h93" id="aB"/><path fill="#fff" d="M30 0v-248h33v221h125V0H30" id="aC"/><g id="w"><use transform="matrix(0.05,0,0,0.05,0,0)" xlink:href="#aw"/><use transform="matrix(0.05,0,0,0.05,10.950000000000001,0)" xlink:href="#ax"/><use transform="matrix(0.05,0,0,0.05,15.950000000000001,0)" xlink:href="#ay"/><use transform="matrix(0.05,0,0,0.05,28.900000000000002,0)" xlink:href="#az"/><use transform="matrix(0.05,0,0,0.05,40.900000000000006,0)" xlink:href="#aA"/><use transform="matrix(0.05,0,0,0.05,57.2,0)" xlink:href="#aB"/><use transform="matrix(0.05,0,0,0.05,69.2,0)" xlink:href="#aC"/><use transform="matrix(0.05,0,0,0.05,79.2,0)" xlink:href="#aC"/></g><g id="x"><use transform="matrix(0.06234567901234565,0,0,0.06234567901234565,0,0)" xlink:href="#ad"/><use transform="matrix(0.06234567901234565,0,0,0.06234567901234565,12.46913580246913,0)" xlink:href="#W"/><use transform="matrix(0.06234567901234565,0,0,0.06234567901234565,24.93827160493826,0)" xlink:href="#W"/><use transform="matrix(0.06234567901234565,0,0,0.06234567901234565,37.40740740740739,0)" xlink:href="#S"/><use transform="matrix(0.06234567901234565,0,0,0.06234567901234565,43.64197530864195,0)" xlink:href="#ae"/><use transform="matrix(0.06234567901234565,0,0,0.06234567901234565,54.864197530864175,0)" xlink:href="#S"/><use transform="matrix(0.06234567901234565,0,0,0.06234567901234565,61.09876543209874,0)" xlink:href="#aa"/><use transform="matrix(0.06234567901234565,0,0,0.06234567901234565,68.51790123456787,0)" xlink:href="#U"/><use transform="matrix(0.06234567901234565,0,0,0.06234567901234565,80.987037037037,0)" xlink:href="#L"/></g><path d="M16-82v-28h88v28H16" id="aD"/><g id="y"><use transform="matrix(0.06234567901234565,0,0,0.06234567901234565,0,0)" xlink:href="#N"/><use transform="matrix(0.06234567901234565,0,0,0.06234567901234565,12.46913580246913,0)" xlink:href="#W"/><use transform="matrix(0.06234567901234565,0,0,0.06234567901234565,24.93827160493826,0)" xlink:href="#Y"/><use transform="matrix(0.06234567901234565,0,0,0.06234567901234565,37.40740740740739,0)" xlink:href="#M"/><use transform="matrix(0.06234567901234565,0,0,0.06234567901234565,49.87654320987652,0)" xlink:href="#aD"/><use transform="matrix(0.06234567901234565,0,0,0.06234567901234565,57.29567901234566,0)" xlink:href="#at"/></g><path d="M27 0v-27h64v-190l-56 39v-29l58-41h29v221h61V0H27" id="aE"/><g id="z"><use transform="matrix(0.06234567901234565,0,0,0.06234567901234565,0,0)" xlink:href="#N"/><use transform="matrix(0.06234567901234565,0,0,0.06234567901234565,12.46913580246913,0)" xlink:href="#W"/><use transform="matrix(0.06234567901234565,0,0,0.06234567901234565,24.93827160493826,0)" xlink:href="#Y"/><use transform="matrix(0.06234567901234565,0,0,0.06234567901234565,37.40740740740739,0)" xlink:href="#M"/><use transform="matrix(0.06234567901234565,0,0,0.06234567901234565,49.87654320987652,0)" xlink:href="#aD"/><use transform="matrix(0.06234567901234565,0,0,0.06234567901234565,57.29567901234566,0)" xlink:href="#aE"/></g><path d="M101-251c68 0 85 55 85 127S166 4 100 4C33 4 14-52 14-124c0-73 17-127 87-127zm-1 229c47 0 54-49 54-102s-4-102-53-102c-51 0-55 48-55 102 0 53 5 102 54 102" id="aF"/><g id="A"><use transform="matrix(0.06234567901234565,0,0,0.06234567901234565,0,0)" xlink:href="#N"/><use transform="matrix(0.06234567901234565,0,0,0.06234567901234565,12.46913580246913,0)" xlink:href="#W"/><use transform="matrix(0.06234567901234565,0,0,0.06234567901234565,24.93827160493826,0)" xlink:href="#Y"/><use transform="matrix(0.06234567901234565,0,0,0.06234567901234565,37.40740740740739,0)" xlink:href="#M"/><use transform="matrix(0.06234567901234565,0,0,0.06234567901234565,49.87654320987652,0)" xlink:href="#aD"/><use transform="matrix(0.06234567901234565,0,0,0.06234567901234565,57.29567901234566,0)" xlink:href="#aF"/></g><path fill="#fff" d="M210-169c-67 3-38 105-44 169h-31v-121c0-29-5-50-35-48C34-165 62-65 56 0H25l-1-190h30c1 10-1 24 2 32 10-44 99-50 107 0 11-21 27-35 58-36 85-2 47 119 55 194h-31v-121c0-29-5-49-35-48" id="aG"/><path fill="#fff" d="M177-190C167-65 218 103 67 71c-23-6-38-20-44-43l32-5c15 47 100 32 89-28v-30C133-14 115 1 83 1 29 1 15-40 15-95c0-56 16-97 71-98 29-1 48 16 59 35 1-10 0-23 2-32h30zM94-22c36 0 50-32 50-73 0-42-14-75-50-75-39 0-46 34-46 75s6 73 46 73" id="aH"/><path fill="#fff" d="M59-47c-2 24 18 29 38 22v24C64 9 27 4 27-40v-127H5v-23h24l9-43h21v43h35v23H59v120" id="aI"/><g id="B"><use transform="matrix(0.05,0,0,0.05,0,0)" xlink:href="#aG"/><use transform="matrix(0.05,0,0,0.05,14.950000000000001,0)" xlink:href="#aH"/><use transform="matrix(0.05,0,0,0.05,24.950000000000003,0)" xlink:href="#aG"/><use transform="matrix(0.05,0,0,0.05,39.900000000000006,0)" xlink:href="#aI"/></g><g id="C"><use transform="matrix(0.05,0,0,0.05,0,0)" xlink:href="#V"/><use transform="matrix(0.05,0,0,0.05,9.950000000000001,0)" xlink:href="#am"/><use transform="matrix(0.05,0,0,0.05,21.950000000000003,0)" xlink:href="#ai"/><use transform="matrix(0.05,0,0,0.05,34.900000000000006,0)" xlink:href="#K"/><use transform="matrix(0.05,0,0,0.05,48.900000000000006,0)" xlink:href="#O"/><use transform="matrix(0.05,0,0,0.05,60.900000000000006,0)" xlink:href="#Z"/><use transform="matrix(0.05,0,0,0.05,73.85000000000001,0)" xlink:href="#an"/><use transform="matrix(0.05,0,0,0.05,84.80000000000001,0)" xlink:href="#aq"/></g><g id="D"><use transform="matrix(0.05,0,0,0.05,0,0)" xlink:href="#al"/><use transform="matrix(0.05,0,0,0.05,12.950000000000001,0)" xlink:href="#an"/><use transform="matrix(0.05,0,0,0.05,23.900000000000002,0)" xlink:href="#ac"/></g><g id="E"><use transform="matrix(0.05,0,0,0.05,0,0)" xlink:href="#Z"/><use transform="matrix(0.05,0,0,0.05,12.950000000000001,0)" xlink:href="#K"/><use transform="matrix(0.05,0,0,0.05,26.950000000000003,0)" xlink:href="#Z"/><use transform="matrix(0.05,0,0,0.05,39.900000000000006,0)" xlink:href="#as"/><use transform="matrix(0.05,0,0,0.05,51.900000000000006,0)" xlink:href="#ac"/><use transform="matrix(0.05,0,0,0.05,63.900000000000006,0)" xlink:href="#ak"/><use transform="matrix(0.05,0,0,0.05,68.9,0)" xlink:href="#an"/></g><g id="F"><use transform="matrix(0.05,0,0,0.05,0,0)" xlink:href="#an"/><use transform="matrix(0.05,0,0,0.05,9.600000000000001,0)" xlink:href="#am"/><use transform="matrix(0.05,0,0,0.05,21.6,0)" xlink:href="#al"/><use transform="matrix(0.05,0,0,0.05,34.550000000000004,0)" xlink:href="#au"/></g><path d="M177-190C167-65 218 103 67 71c-23-6-38-20-44-43l32-5c15 47 100 32 89-28v-30C133-14 115 1 83 1 29 1 15-40 15-95c0-56 16-97 71-98 29-1 48 16 59 35 1-10 0-23 2-32h30zM94-22c36 0 50-32 50-73 0-42-14-75-50-75-39 0-46 34-46 75s6 73 46 73" id="aJ"/><g id="G"><use transform="matrix(0.05,0,0,0.05,0,0)" xlink:href="#O"/><use transform="matrix(0.05,0,0,0.05,12,0)" xlink:href="#S"/><use transform="matrix(0.05,0,0,0.05,17,0)" xlink:href="#W"/><use transform="matrix(0.05,0,0,0.05,27,0)" xlink:href="#aa"/><use transform="matrix(0.05,0,0,0.05,32.95,0)" xlink:href="#U"/><use transform="matrix(0.05,0,0,0.05,42.95,0)" xlink:href="#aJ"/><use transform="matrix(0.05,0,0,0.05,52.95,0)" xlink:href="#M"/></g><path d="M143 0L79-87 56-68V0H24v-261h32v163l83-92h37l-77 82L181 0h-38" id="aK"/><g id="H"><use transform="matrix(0.05,0,0,0.05,0,0)" xlink:href="#T"/><use transform="matrix(0.05,0,0,0.05,12.950000000000001,0)" xlink:href="#Q"/><use transform="matrix(0.05,0,0,0.05,16.900000000000002,0)" xlink:href="#ae"/><use transform="matrix(0.05,0,0,0.05,25.900000000000002,0)" xlink:href="#aK"/></g><g id="J"><use transform="matrix(0.05,0,0,0.05,0,0)" xlink:href="#O"/><use transform="matrix(0.05,0,0,0.05,12,0)" xlink:href="#S"/><use transform="matrix(0.05,0,0,0.05,17,0)" xlink:href="#W"/><use transform="matrix(0.05,0,0,0.05,27,0)" xlink:href="#aa"/><use transform="matrix(0.05,0,0,0.05,32.95,0)" xlink:href="#U"/><use transform="matrix(0.05,0,0,0.05,42.95,0)" xlink:href="#aJ"/><use transform="matrix(0.05,0,0,0.05,52.95,0)" xlink:href="#M"/></g></defs></g></svg>